<svg version="1.1" xmlns="http://www.w3.org/2000/svg" viewBox="0 0 2406.3771769851514 1486.2557455875012" width="4812.754353970303" height="2972.5114911750024">
    <!-- svg-source:excalidraw -->

    <defs>
        <style class="style-fonts">
            @font-face {
            font-family: "Virgil";
            src: url("https://excalidraw.com/Virgil.woff2");
            }
            @font-face {
            font-family: "Cascadia";
            src: url("https://excalidraw.com/Cascadia.woff2");
            }
        </style>
    </defs>
    <rect x="0" y="0" width="2406.3771769851514" height="1486.2557455875012" fill="#ffffff"></rect><g stroke-linecap="round" transform="translate(10 201) rotate(0 51 25.5)"><path d="M3.39 2.95 C3.39 2.95, 3.39 2.95, 3.39 2.95 M3.39 2.95 C3.39 2.95, 3.39 2.95, 3.39 2.95 M1.82 10.86 C3.48 7.69, 4.95 7.53, 9.04 2.56 M1.82 10.86 C3.11 8.84, 5.78 6.25, 9.04 2.56 M1.56 17.26 C6.59 13.97, 7.47 8.59, 14.68 2.16 M1.56 17.26 C4.75 14.49, 6.73 10.83, 14.68 2.16 M1.95 22.9 C8.5 18.01, 14.18 10.89, 20.32 1.77 M1.95 22.9 C7.21 16.96, 10.61 12.48, 20.32 1.77 M1.69 29.3 C11.99 18.35, 18.95 8.5, 25.31 2.13 M1.69 29.3 C8.85 20.89, 15.68 12.78, 25.31 2.13 M1.43 35.69 C9.28 25.13, 21.23 12.41, 30.95 1.73 M1.43 35.69 C12.95 24.21, 22.84 11.87, 30.95 1.73 M1.17 42.09 C12.33 32.82, 22.12 21.39, 35.94 2.09 M1.17 42.09 C8.4 32.56, 17.9 22.1, 35.94 2.09 M2.22 46.98 C10.86 34.72, 22.92 24.38, 41.58 1.7 M2.22 46.98 C14.13 33.43, 26.52 20.25, 41.58 1.7 M5.24 49.6 C13.81 39.05, 24.38 27.67, 46.57 2.06 M5.24 49.6 C21.8 29.92, 37.22 12, 46.57 2.06 M9.57 50.72 C24.93 37.23, 35.2 20.52, 52.21 1.66 M9.57 50.72 C20.85 37.65, 31.12 24.64, 52.21 1.66 M13.9 51.83 C26.51 37.77, 37.97 21.92, 57.2 2.02 M13.9 51.83 C28.43 37, 41.86 20.04, 57.2 2.02 M18.89 52.19 C34.34 34.72, 50.73 13.96, 62.84 1.63 M18.89 52.19 C30.76 37.99, 44.53 22.97, 62.84 1.63 M24.53 51.8 C33.96 37.99, 48.04 25.14, 67.83 1.99 M24.53 51.8 C38.86 36.71, 53.06 20.19, 67.83 1.99 M29.52 52.16 C40.76 41.74, 51.1 29.32, 73.47 1.59 M29.52 52.16 C41.49 37.55, 56.33 22.6, 73.47 1.59 M35.16 51.76 C46.22 38.33, 60.17 23.65, 78.46 1.95 M35.16 51.76 C48.7 36.76, 62.65 20.3, 78.46 1.95 M40.15 52.12 C56 34.79, 68.31 20.38, 84.1 1.56 M40.15 52.12 C54.54 35.68, 68.09 20.49, 84.1 1.56 M45.79 51.73 C54.93 42.17, 65.05 31.8, 90.4 0.41 M45.79 51.73 C61.54 34.42, 74.51 16.63, 90.4 0.41 M50.78 52.09 C65.6 33.24, 81.96 14.76, 94.73 1.52 M50.78 52.09 C60.09 41.65, 69.08 31.4, 94.73 1.52 M56.42 51.7 C68.37 36.16, 83.55 22.07, 98.41 3.39 M56.42 51.7 C65.95 41.54, 74.6 30.71, 98.41 3.39 M61.41 52.06 C77.36 32.09, 94.59 17.42, 101.43 6.02 M61.41 52.06 C73.25 37.12, 86.06 23.02, 101.43 6.02 M67.05 51.66 C76.74 37.29, 90.28 25.48, 102.48 10.91 M67.05 51.66 C79.91 36.48, 94.8 20.27, 102.48 10.91 M72.04 52.02 C79 43.84, 87.97 31.89, 102.87 16.55 M72.04 52.02 C79.25 43.7, 86.66 34.77, 102.87 16.55 M77.68 51.63 C87.55 40, 95.76 33.35, 102.61 22.95 M77.68 51.63 C83.7 46.29, 88.72 40.18, 102.61 22.95 M82.67 51.99 C91.28 45.84, 96.24 36.64, 103.01 28.59 M82.67 51.99 C88.06 45.08, 94.24 38.92, 103.01 28.59 M88.31 51.59 C92.36 45.55, 95.64 43.48, 102.74 34.99 M88.31 51.59 C92.24 47.71, 94.37 44.93, 102.74 34.99 M91.99 53.46 C95.77 48.93, 97.94 43.71, 103.79 39.88 M91.99 53.46 C96.61 48.62, 101.6 43.16, 103.79 39.88" stroke="#ced4da" stroke-width="0.5" fill="none"></path><path d="M12.75 0 M12.75 0 C37.99 -0.53, 58.62 -0.96, 89.25 0 M12.75 0 C40.5 -0.36, 65.73 0.06, 89.25 0 M89.25 0 C95.99 -1.38, 102.46 5.68, 102 12.75 M89.25 0 C99.58 0.59, 100.06 2.33, 102 12.75 M102 12.75 C103.97 21.57, 100.14 30.7, 102 38.25 M102 12.75 C101.98 20, 101.42 27.89, 102 38.25 M102 38.25 C103.35 45.2, 98.52 52.28, 89.25 51 M102 38.25 C101.97 45.97, 97.68 52.59, 89.25 51 M89.25 51 C64.02 48.73, 36.29 48.93, 12.75 51 M89.25 51 C61.49 49.87, 33.29 49.66, 12.75 51 M12.75 51 C2.91 52.53, -1.32 47.26, 0 38.25 M12.75 51 C4.57 51.29, -1.56 46.82, 0 38.25 M0 38.25 C-0.94 26.93, 1.85 18.18, 0 12.75 M0 38.25 C0.66 32.36, -1.12 26.21, 0 12.75 M0 12.75 C0.57 2.32, 2.31 1.03, 12.75 0 M0 12.75 C0.55 2.3, 3.22 -0.21, 12.75 0" stroke="#000000" stroke-width="1" fill="none"></path></g><g transform="translate(17 162) rotate(0 53 12.5)"><text x="0" y="18" font-family="Virgil, Segoe UI Emoji" font-size="20px" fill="#000000" text-anchor="start" style="white-space: pre;" direction="ltr">@MateuUI</text></g><g stroke-linecap="round" transform="translate(227 196) rotate(0 42 26.5)"><path d="M1.66 5.41 C1.66 5.41, 1.66 5.41, 1.66 5.41 M1.66 5.41 C1.66 5.41, 1.66 5.41, 1.66 5.41 M1.39 11.81 C3.86 10.31, 4.09 8.33, 7.95 4.27 M1.39 11.81 C4.03 8.68, 6.09 5.97, 7.95 4.27 M1.79 17.46 C6.99 12.85, 12.09 5.19, 15.57 1.61 M1.79 17.46 C5.71 13.83, 7.94 9.74, 15.57 1.61 M1.53 23.85 C6.5 18.21, 13.41 13.82, 20.55 1.97 M1.53 23.85 C7.58 16.6, 14.13 8.76, 20.55 1.97 M1.92 29.5 C6.49 22.43, 12.61 17.2, 26.2 1.57 M1.92 29.5 C9.73 19.61, 17.43 11.92, 26.2 1.57 M1.66 35.89 C11.29 22.98, 23.07 10.9, 31.18 1.93 M1.66 35.89 C9.78 26.12, 17.99 17.69, 31.18 1.93 M0.74 43.05 C10.06 30.72, 20.72 17.9, 36.83 1.54 M0.74 43.05 C13.91 28.22, 25 14.98, 36.83 1.54 M1.79 47.93 C12.89 35.97, 20.97 26.06, 41.81 1.9 M1.79 47.93 C11.57 37.01, 20.51 25.68, 41.81 1.9 M4.81 50.56 C17.92 36.98, 27.64 24.96, 47.46 1.5 M4.81 50.56 C15.05 40.49, 23.5 30.52, 47.46 1.5 M7.83 53.18 C17.7 42.92, 29.16 28.49, 52.44 1.86 M7.83 53.18 C25.98 32.35, 43.48 11.93, 52.44 1.86 M13.47 52.79 C30.88 33.42, 48.33 11.89, 58.09 1.47 M13.47 52.79 C24.39 40.42, 35.09 27.46, 58.09 1.47 M18.46 53.15 C28.37 43.62, 37.29 32.21, 63.07 1.83 M18.46 53.15 C32.39 34.77, 49.39 18.16, 63.07 1.83 M24.1 52.75 C40.66 33.17, 56.92 11.46, 68.06 2.19 M24.1 52.75 C38.56 36.18, 53.42 19.36, 68.06 2.19 M29.09 53.11 C42.12 40.09, 50.61 26.81, 73.05 2.55 M29.09 53.11 C44.56 35.01, 62.33 14.54, 73.05 2.55 M34.73 52.72 C53.91 34.49, 69.9 11.61, 78.69 2.15 M34.73 52.72 C47.94 37.3, 61.05 24.2, 78.69 2.15 M39.72 53.08 C57.38 34.57, 74.76 15.94, 81.71 4.78 M39.72 53.08 C49.88 42.06, 58.66 30.44, 81.71 4.78 M45.36 52.69 C57.77 36.51, 69.64 21.62, 84.73 7.4 M45.36 52.69 C59.48 35.94, 73.92 19.74, 84.73 7.4 M50.35 53.05 C60.54 43.62, 67.54 31.44, 85.78 12.29 M50.35 53.05 C63.05 39.19, 74.8 24.58, 85.78 12.29 M55.99 52.65 C62.3 44.9, 70.01 35.08, 86.17 17.93 M55.99 52.65 C65.71 41.94, 74.19 31.24, 86.17 17.93 M60.98 53.01 C67.13 46.33, 71.79 39.33, 85.91 24.33 M60.98 53.01 C66.11 47.17, 71.79 41.34, 85.91 24.33 M65.97 53.37 C69.61 46.04, 77.17 42.41, 86.31 29.97 M65.97 53.37 C72.63 46.44, 78.65 39.67, 86.31 29.97 M70.96 53.73 C75 47.05, 82.48 43.45, 86.05 36.37 M70.96 53.73 C73.75 49.35, 76.97 45.04, 86.05 36.37 M77.91 51.83 C80.93 47.49, 82.27 45.93, 86.44 42.02 M77.91 51.83 C80.42 48.24, 83.09 45.94, 86.44 42.02" stroke="#ced4da" stroke-width="0.5" fill="none"></path><path d="M13.25 0 M13.25 0 C29.02 -1.1, 46.06 1.34, 70.75 0 M13.25 0 C26.03 -0.71, 38.81 0.32, 70.75 0 M70.75 0 C80.37 -0.76, 82.59 5.17, 84 13.25 M70.75 0 C77.59 -1.16, 82.24 5.99, 84 13.25 M84 13.25 C82.51 22.62, 82.09 28.94, 84 39.75 M84 13.25 C83.96 23.36, 83.15 33.25, 84 39.75 M84 39.75 C85.7 47.15, 78.57 51.88, 70.75 53 M84 39.75 C82.27 50.5, 79.09 51.1, 70.75 53 M70.75 53 C47.72 51.73, 24.16 54.08, 13.25 53 M70.75 53 C59.27 52.45, 46.87 53.2, 13.25 53 M13.25 53 C3.99 52.17, -1.27 47.43, 0 39.75 M13.25 53 C6.16 52.15, 2.13 48.51, 0 39.75 M0 39.75 C-1.76 32.78, 0.56 25.29, 0 13.25 M0 39.75 C-0.56 33.12, 0.62 27.29, 0 13.25 M0 13.25 C0.61 3.66, 3.29 -0.82, 13.25 0 M0 13.25 C-0.16 4.41, 6.66 1.64, 13.25 0" stroke="#000000" stroke-width="1" fill="none"></path></g><g stroke-linecap="round"><g transform="translate(123 225) rotate(0 46.21717452630401 -0.36219862303539685)"><path d="M0.11 -0.83 C15.53 -0.79, 76.7 0.23, 92.32 0.1" stroke="#000000" stroke-width="1.5" fill="none" stroke-dasharray="8 9"></path></g><g transform="translate(123 225) rotate(0 46.21717452630401 -0.36219862303539685)"><path d="M62.69 9.07 C74.02 8.72, 79.2 4.29, 91.44 1.58" stroke="#000000" stroke-width="1.5" fill="none"></path></g><g transform="translate(123 225) rotate(0 46.21717452630401 -0.36219862303539685)"><path d="M62.8 -11.45 C74.07 -5.91, 79.22 -4.47, 91.44 1.58" stroke="#000000" stroke-width="1.5" fill="none"></path></g></g><mask></mask><g transform="translate(240 159) rotate(0 35 12.5)"><text x="0" y="18" font-family="Virgil, Segoe UI Emoji" font-size="20px" fill="#000000" text-anchor="start" style="white-space: pre;" direction="ltr">servlet</text></g><g stroke-linecap="round" transform="translate(229 48) rotate(0 40 22)"><path d="M2.93 2.55 C2.93 2.55, 2.93 2.55, 2.93 2.55 M2.93 2.55 C2.93 2.55, 2.93 2.55, 2.93 2.55 M0.7 11.21 C3.21 7.91, 4.17 6.11, 10.54 -0.11 M0.7 11.21 C3.97 7.07, 8.14 2.9, 10.54 -0.11 M0.44 17.6 C4.85 13.65, 7.63 5.32, 13.56 2.51 M0.44 17.6 C4.61 13.65, 8.11 6.99, 13.56 2.51 M0.83 23.25 C7.99 14.61, 16.55 7.15, 19.2 2.12 M0.83 23.25 C8.1 14.91, 16.07 7.68, 19.2 2.12 M1.23 28.89 C7.3 21.33, 11.74 15.91, 24.19 2.48 M1.23 28.89 C6.08 22.71, 11.7 15.76, 24.19 2.48 M0.96 35.29 C11 24.33, 20.74 15.11, 29.18 2.84 M0.96 35.29 C10.37 26.16, 19.03 15.54, 29.18 2.84 M2.67 39.42 C10.82 26.37, 23.2 16.39, 34.82 2.44 M2.67 39.42 C12.79 28.07, 22.29 15.97, 34.82 2.44 M5.69 42.05 C12.67 31.72, 24.34 22, 39.81 2.8 M5.69 42.05 C20.33 25.32, 33.9 10.7, 39.81 2.8 M8.05 45.43 C15.91 34.67, 23.79 25.22, 45.45 2.41 M8.05 45.43 C16.03 37.59, 24.53 27.23, 45.45 2.41 M13.7 45.03 C24.45 34.99, 30.35 22.31, 50.44 2.77 M13.7 45.03 C25.66 29.97, 38.71 15.63, 50.44 2.77 M18.68 45.39 C30.73 28.65, 46.48 14.58, 55.42 3.13 M18.68 45.39 C30.48 31.85, 41.13 20.02, 55.42 3.13 M24.33 45 C29.89 36.27, 40.33 29.12, 61.07 2.73 M24.33 45 C37.71 29.35, 49.89 15.06, 61.07 2.73 M29.31 45.36 C43.66 28, 58.98 10.93, 66.05 3.09 M29.31 45.36 C38.07 34.47, 47.38 24.08, 66.05 3.09 M34.3 45.72 C40.36 37.28, 48.17 29.61, 71.7 2.7 M34.3 45.72 C44.11 35.3, 53.23 23.31, 71.7 2.7 M39.94 45.32 C51.82 34.2, 59.96 23.07, 76.68 3.06 M39.94 45.32 C52.96 31.01, 66.52 15.91, 76.68 3.06 M44.93 45.68 C56.38 36, 64.29 24.2, 79.7 5.68 M44.93 45.68 C51.71 36.59, 60.25 29.45, 79.7 5.68 M50.57 45.29 C60.76 32.59, 74.28 19.56, 82.06 9.06 M50.57 45.29 C63.44 31.1, 75.54 15.69, 82.06 9.06 M55.56 45.65 C63.64 37.82, 70.32 27.94, 82.46 14.7 M55.56 45.65 C65.32 35.17, 75.53 22.84, 82.46 14.7 M60.55 46.01 C64.41 38.94, 71.77 35.18, 82.2 21.1 M60.55 46.01 C66.04 39.33, 70.11 35.02, 82.2 21.1 M66.19 45.61 C70.23 39.81, 73.89 38.46, 82.59 26.75 M66.19 45.61 C69.28 42.23, 73.56 36.26, 82.59 26.75 M71.18 45.97 C74.93 39.37, 78.25 36.38, 82.33 33.14 M71.18 45.97 C73.78 42.58, 75.47 40.61, 82.33 33.14" stroke="#ced4da" stroke-width="0.5" fill="none"></path><path d="M11 0 M11 0 C26.01 1.88, 42.59 2.22, 69 0 M11 0 C28.69 -1.01, 45.57 0.15, 69 0 M69 0 C76.46 -1.32, 80.29 3.95, 80 11 M69 0 C75.12 -1, 81.52 3.52, 80 11 M80 11 C79.1 18.13, 79.91 27.5, 80 33 M80 11 C80.47 19.79, 79.83 26.62, 80 33 M80 33 C80.65 41.06, 76.28 45.61, 69 44 M80 33 C77.82 41.95, 76.55 43.56, 69 44 M69 44 C50.01 45.96, 31.03 43.29, 11 44 M69 44 C55.79 44.7, 41.63 43.81, 11 44 M11 44 C3.04 42.76, 0.36 40.96, 0 33 M11 44 C3.7 43.07, 1.29 41.43, 0 33 M0 33 C1.26 22.69, 1.63 18.2, 0 11 M0 33 C0.13 26.6, 0.66 22.31, 0 11 M0 11 C-0.91 2.5, 4.97 -0.4, 11 0 M0 11 C-2.21 4.07, 3.36 -1.5, 11 0" stroke="#000000" stroke-width="1" fill="none"></path></g><g transform="translate(201 10) rotate(0 67 12.5)"><text x="0" y="18" font-family="Virgil, Segoe UI Emoji" font-size="20px" fill="#000000" text-anchor="start" style="white-space: pre;" direction="ltr">VaadinServlet</text></g><g stroke-linecap="round"><g transform="translate(269 187) rotate(0 -2.436911877244711 -42.01825972820632)"><path d="M-0.02 -1.16 C-0.92 -15.21, -4.26 -69.57, -4.86 -83.19 M-1.49 0.85 C-2.05 -13.02, -2.15 -70.63, -2.59 -84.89" stroke="#000000" stroke-width="1" fill="none"></path></g><g transform="translate(269 187) rotate(0 -2.436911877244711 -42.01825972820632)"><path d="M-1.9 -83.84 L3.4 -72.5 L-7.35 -69.22 L-3.42 -83.85" stroke="none" stroke-width="0" fill="#000000" fill-rule="evenodd"></path><path d="M-4.04 -85.96 C0.8 -79.71, 3.41 -76.45, 4.04 -72.1 M-2.36 -85.01 C-0.61 -80.78, 1.54 -76.36, 4.09 -71.69 M3.89 -72.35 C0.54 -70.38, -2.48 -70, -9.6 -70.01 M3.94 -71.92 C-0.47 -70.69, -5.89 -71.48, -8.77 -71.6 M-8.43 -70.08 C-6.07 -74.99, -6.94 -76.18, -2.43 -83.56 M-8.44 -70.96 C-6.6 -75.9, -5.15 -79.94, -3.12 -84.43 M-2.59 -84.89 C-2.59 -84.89, -2.59 -84.89, -2.59 -84.89 M-2.59 -84.89 C-2.59 -84.89, -2.59 -84.89, -2.59 -84.89" stroke="#000000" stroke-width="1" fill="none"></path></g></g><mask></mask><g transform="translate(185 542) rotate(0 17.5 12.5)"><text x="0" y="18" font-family="Virgil, Segoe UI Emoji" font-size="20px" fill="#000000" text-anchor="start" style="white-space: pre;" direction="ltr">app</text></g><g stroke-linecap="round"><g transform="translate(236 545) rotate(0 -88.64515208378435 -140.33208492498375)"><path d="M0.74 -0.34 C-25.28 -6.5, -126.03 8.52, -155.83 -37.81 C-185.62 -84.14, -174.45 -238.15, -178.03 -278.33 M-0.33 -1.57 C-25.99 -7.52, -124.32 9.76, -153.55 -36.7 C-182.77 -83.16, -171.73 -240.15, -175.67 -280.32" stroke="#000000" stroke-width="1" fill="none"></path></g><g transform="translate(236 545) rotate(0 -88.64515208378435 -140.33208492498375)"><path d="M-165.53 -253.68 C-169.56 -262.96, -170.54 -270.76, -175.49 -280.33 M-165.23 -251.75 C-168.57 -258.73, -169.53 -266.78, -175.51 -279.89" stroke="#000000" stroke-width="1" fill="none"></path></g><g transform="translate(236 545) rotate(0 -88.64515208378435 -140.33208492498375)"><path d="M-186.04 -253.35 C-183.48 -262.86, -177.86 -270.77, -175.49 -280.33 M-185.75 -251.42 C-184.17 -258.33, -180.21 -266.46, -175.51 -279.89" stroke="#000000" stroke-width="1" fill="none"></path></g></g><mask></mask><g stroke-linecap="round" transform="translate(241 372) rotate(0 39.5 25)"><path d="M3.33 2.89 C3.33 2.89, 3.33 2.89, 3.33 2.89 M3.33 2.89 C3.33 2.89, 3.33 2.89, 3.33 2.89 M1.75 10.8 C5.29 8.13, 6.48 5.61, 10.28 0.99 M1.75 10.8 C4.81 7.85, 8.15 4.33, 10.28 0.99 M1.49 17.2 C6.44 14.78, 7.98 10.3, 14.61 2.1 M1.49 17.2 C3.51 13.34, 7.42 11.51, 14.61 2.1 M1.89 22.84 C7.13 15.76, 15.68 8.46, 20.26 1.71 M1.89 22.84 C9.53 14.56, 16.39 5.17, 20.26 1.71 M1.63 29.24 C8.71 22.53, 14.39 13.78, 25.24 2.07 M1.63 29.24 C10.19 20.13, 19.21 9.17, 25.24 2.07 M1.36 35.64 C7 26.56, 16.17 20.72, 30.89 1.67 M1.36 35.64 C8.69 26.85, 14.65 20.37, 30.89 1.67 M1.76 41.28 C9.9 30.68, 17.7 24.55, 35.87 2.03 M1.76 41.28 C9 33.34, 17.33 22.72, 35.87 2.03 M2.81 46.17 C17.15 26.73, 31 11.77, 41.52 1.64 M2.81 46.17 C11.37 36.05, 18.57 27.73, 41.52 1.64 M5.83 48.79 C16.2 37.52, 27.95 24.82, 46.5 2 M5.83 48.79 C18.49 33.95, 30.24 21.22, 46.5 2 M10.16 49.91 C23.62 34, 35.33 21.58, 52.15 1.61 M10.16 49.91 C21.78 35.47, 34.6 21.69, 52.15 1.61 M13.83 51.78 C30.52 33.35, 49.16 12.25, 57.13 1.97 M13.83 51.78 C23.58 40.99, 32.6 29.46, 57.13 1.97 M19.48 51.38 C32.99 37.19, 46.75 22.5, 62.12 2.33 M19.48 51.38 C35.42 33.66, 52.83 14.6, 62.12 2.33 M24.46 51.74 C38.16 35.41, 54.65 18.24, 68.42 1.18 M24.46 51.74 C36.39 39.04, 46.78 25.99, 68.42 1.18 M30.11 51.35 C37.33 39.82, 45.99 30.99, 72.75 2.29 M30.11 51.35 C38.26 40.44, 48.24 30.62, 72.75 2.29 M35.09 51.71 C42.13 43.51, 53.32 32.49, 76.43 4.16 M35.09 51.71 C52.32 32.23, 67.11 13.81, 76.43 4.16 M40.74 51.31 C53.2 38.55, 62.89 25.26, 79.44 6.78 M40.74 51.31 C56.47 33.16, 70.64 15.46, 79.44 6.78 M45.72 51.67 C54.44 37.38, 68.33 26.23, 80.5 11.67 M45.72 51.67 C53.37 44.51, 60.6 36.23, 80.5 11.67 M51.37 51.28 C59.23 42.98, 69.48 31.57, 80.89 17.32 M51.37 51.28 C57.46 43.13, 64.54 37.39, 80.89 17.32 M56.35 51.64 C63.17 43.06, 71.08 32.73, 80.63 23.71 M56.35 51.64 C62.26 44.44, 69.08 39.13, 80.63 23.71 M62 51.24 C66.79 46.59, 70.49 38.08, 81.02 29.36 M62 51.24 C65.71 45.65, 71.12 39.46, 81.02 29.36 M67.64 50.85 C69.59 47.47, 73.65 43.95, 79.45 37.26 M67.64 50.85 C70.94 47.04, 72.91 44.4, 79.45 37.26" stroke="#ced4da" stroke-width="0.5" fill="none"></path><path d="M12.5 0 M12.5 0 C31.19 0.35, 50.62 1.11, 66.5 0 M12.5 0 C28.76 -0.95, 46.6 -0.48, 66.5 0 M66.5 0 C74.23 -1.8, 79.8 5.51, 79 12.5 M66.5 0 C74.58 -1.12, 76.95 2.94, 79 12.5 M79 12.5 C80.57 22.05, 79.62 31.48, 79 37.5 M79 12.5 C79.66 21.09, 79.28 29.34, 79 37.5 M79 37.5 C80.13 44.98, 75.71 49.4, 66.5 50 M79 37.5 C80.1 45.87, 73.62 52, 66.5 50 M66.5 50 C44.35 50.04, 26.82 48.85, 12.5 50 M66.5 50 C49.72 50.18, 33.62 50.51, 12.5 50 M12.5 50 C2.81 50.93, -1.42 44.72, 0 37.5 M12.5 50 C3.8 48.37, 1.24 47.91, 0 37.5 M0 37.5 C-0.96 27.43, 1.41 19.01, 0 12.5 M0 37.5 C0.36 31.76, 0.74 27.67, 0 12.5 M0 12.5 C-0.69 3.25, 3.32 0.68, 12.5 0 M0 12.5 C-0.38 2.14, 3.51 -1.41, 12.5 0" stroke="#000000" stroke-width="1" fill="none"></path></g><g transform="translate(237 341) rotate(0 44.5 12.5)"><text x="0" y="18" font-family="Virgil, Segoe UI Emoji" font-size="20px" fill="#000000" text-anchor="start" style="white-space: pre;" direction="ltr">MateuUI</text></g><g stroke-linecap="round" transform="translate(248 524) rotate(0 36.5 22)"><path d="M0.83 6.02 C0.83 6.02, 0.83 6.02, 0.83 6.02 M0.83 6.02 C0.83 6.02, 0.83 6.02, 0.83 6.02 M0.57 12.42 C2.86 7.16, 9.09 3.03, 11.07 0.34 M0.57 12.42 C3.42 8.5, 8.07 3.98, 11.07 0.34 M0.31 18.82 C6.18 13.8, 6.95 11.3, 16.71 -0.05 M0.31 18.82 C4.31 12.12, 10.54 6.27, 16.71 -0.05 M0.05 25.22 C2.62 19.22, 8.52 14.63, 21.7 0.31 M0.05 25.22 C6.56 18.53, 12.33 12.42, 21.7 0.31 M-0.21 31.61 C5.59 23.08, 15.49 14.16, 27.34 -0.08 M-0.21 31.61 C5.66 23.73, 13.29 16.69, 27.34 -0.08 M2.15 34.99 C11.44 23.54, 22.23 14.16, 32.33 0.28 M2.15 34.99 C14.1 22.76, 24.66 8.55, 32.33 0.28 M3.85 39.13 C16.66 24.2, 27.79 13.24, 37.97 -0.12 M3.85 39.13 C13.85 28.46, 23.68 17.84, 37.97 -0.12 M5.56 43.26 C16.47 34.08, 24.96 22.8, 42.96 0.24 M5.56 43.26 C14.88 33.45, 23.71 22.38, 42.96 0.24 M9.24 45.13 C24.3 28.27, 38.46 10.62, 48.6 -0.15 M9.24 45.13 C23.53 27.22, 39.4 9.21, 48.6 -0.15 M13.57 46.24 C26.43 31.45, 41.35 11.94, 53.59 0.21 M13.57 46.24 C27.05 32.63, 39.08 18.19, 53.59 0.21 M18.55 46.6 C27.47 33.03, 38.45 21.35, 59.23 -0.19 M18.55 46.6 C28.88 34.17, 39.19 22.09, 59.23 -0.19 M24.2 46.21 C35.74 30.59, 48.03 16.61, 63.56 0.93 M24.2 46.21 C35.72 32.59, 49.02 16.35, 63.56 0.93 M29.18 46.57 C43.74 33.55, 56.1 16.43, 67.24 2.8 M29.18 46.57 C37.68 38.57, 44.36 28.25, 67.24 2.8 M34.83 46.18 C45.1 33.42, 60.21 19.74, 71.57 3.91 M34.83 46.18 C44.32 35.25, 52.87 24.53, 71.57 3.91 M39.81 46.54 C47.25 38.81, 58.43 26.29, 73.27 8.05 M39.81 46.54 C48.46 36.44, 55.21 27.29, 73.27 8.05 M45.46 46.14 C56.03 33.48, 65.42 21.37, 74.98 12.18 M45.46 46.14 C56.87 33.37, 68.02 20.63, 74.98 12.18 M50.44 46.5 C55 39, 62.14 32.63, 74.72 18.58 M50.44 46.5 C56 41.17, 61.77 34.18, 74.72 18.58 M56.09 46.11 C61.39 38.57, 69.38 29.41, 74.46 24.97 M56.09 46.11 C59.75 41.06, 62.83 36.58, 74.46 24.97 M62.39 44.96 C68.75 39.63, 72.56 34.17, 74.85 30.62 M62.39 44.96 C67.13 40.36, 70.93 35.48, 74.85 30.62" stroke="#ced4da" stroke-width="0.5" fill="none"></path><path d="M11 0 M11 0 C28.57 0.74, 47.38 -1.28, 62 0 M11 0 C31.67 -0.8, 50.25 0.72, 62 0 M62 0 C67.68 -0.03, 71.71 3.72, 73 11 M62 0 C67.79 0.39, 71.49 4.81, 73 11 M73 11 C71.99 15.79, 71.68 22.28, 73 33 M73 11 C73.29 19.2, 72.27 28.98, 73 33 M73 33 C71.39 38.44, 67.95 45.84, 62 44 M73 33 C73.44 38.93, 70.64 44.99, 62 44 M62 44 C49.14 43.45, 33.16 43.22, 11 44 M62 44 C48.97 44.26, 37.87 44.88, 11 44 M11 44 C5.34 44.81, -0.33 39.18, 0 33 M11 44 C4.81 44.99, 2.2 38.75, 0 33 M0 33 C-0.9 26.13, -0.85 17.19, 0 11 M0 33 C-0.28 25.79, 0.77 20.74, 0 11 M0 11 C0.58 5.63, 3.05 -0.95, 11 0 M0 11 C-0.31 5.95, 2.04 -1.67, 11 0" stroke="#000000" stroke-width="1" fill="none"></path></g><g transform="translate(249 484) rotate(0 13.5 12.5)"><text x="0" y="18" font-family="Virgil, Segoe UI Emoji" font-size="20px" fill="#000000" text-anchor="start" style="white-space: pre;" direction="ltr">UI</text></g><g stroke-linecap="round"><g transform="translate(277 431) rotate(0 9.936572758108355 43.305076207839875)"><path d="M-1.02 -0.54 C2.36 13.71, 17.3 71.45, 20.89 85.74 M0.65 1.8 C3.81 16.2, 16.74 73.09, 19.88 87.15" stroke="#000000" stroke-width="1" fill="none"></path></g><g transform="translate(277 431) rotate(0 9.936572758108355 43.305076207839875)"><path d="M19.48 85.22 L11.06 75.01 L21.77 73.93 L21.35 87.25" stroke="none" stroke-width="0" fill="#000000" fill-rule="evenodd"></path><path d="M19.21 87.01 C16.31 82.28, 12.45 77.86, 11.84 74.73 M20.11 87.51 C15.65 82.59, 12.92 77.86, 10.21 75.39 M11.55 75.2 C15 73.98, 17.78 73.06, 22.99 72.49 M10.65 75.65 C16 74.19, 20.08 73.33, 23.31 72.47 M23.21 72.2 C22.34 78.26, 21.37 84.26, 21.1 88.36 M23.59 72.97 C22.42 76.35, 20.96 79.5, 19.42 87.28 M19.88 87.15 C19.88 87.15, 19.88 87.15, 19.88 87.15 M19.88 87.15 C19.88 87.15, 19.88 87.15, 19.88 87.15" stroke="#000000" stroke-width="1" fill="none"></path></g></g><mask></mask><g stroke-linecap="round"><g transform="translate(266 259) rotate(0 7.09131600037216 50.88945574509444)"><path d="M-0.92 0.37 C1.64 17.48, 12.72 85.36, 15.11 102.26 M0.79 -0.48 C3.31 16.28, 12.82 83.03, 14.74 100.27" stroke="#000000" stroke-width="1" fill="none"></path></g><g transform="translate(266 259) rotate(0 7.09131600037216 50.88945574509444)"><path d="M1.57 75.47 C5.14 80.19, 8.18 87.47, 15.09 99.25 M1.28 73.6 C3.8 81.35, 8.61 86.62, 14.18 100.36" stroke="#000000" stroke-width="1" fill="none"></path></g><g transform="translate(266 259) rotate(0 7.09131600037216 50.88945574509444)"><path d="M21.92 72.84 C19.81 78.13, 17.17 86.14, 15.09 99.25 M21.63 70.97 C19.04 79.28, 18.76 85.21, 14.18 100.36" stroke="#000000" stroke-width="1" fill="none"></path></g></g><mask></mask><g stroke-linecap="round" transform="translate(499 534) rotate(0 35.5 21)"><path d="M2.79 2.43 C2.79 2.43, 2.79 2.43, 2.79 2.43 M2.79 2.43 C2.79 2.43, 2.79 2.43, 2.79 2.43 M3.19 8.07 C6.89 4.98, 8.06 0.6, 10.41 -0.23 M3.19 8.07 C5.05 5.64, 8.24 2.68, 10.41 -0.23 M2.93 14.47 C6.93 10.88, 8.12 9.79, 13.42 2.4 M2.93 14.47 C6.35 10.89, 9.61 7.61, 13.42 2.4 M2.67 20.87 C8.87 14.1, 13.73 8.47, 18.41 2.76 M2.67 20.87 C9.01 15.46, 13.64 9.28, 18.41 2.76 M2.41 27.27 C5.6 21.57, 10.75 16.15, 24.06 2.36 M2.41 27.27 C7.9 20.93, 12.92 15.09, 24.06 2.36 M2.14 33.66 C9.85 28.1, 16.1 20.3, 29.04 2.72 M2.14 33.66 C11.69 23.16, 18.56 13.35, 29.04 2.72 M3.85 37.8 C17.01 24.94, 27.27 9.25, 34.69 2.33 M3.85 37.8 C10.79 28.42, 19.01 20.32, 34.69 2.33 M5.56 41.93 C18.16 29.61, 31.2 15.54, 39.67 2.69 M5.56 41.93 C15.88 31.59, 24.44 20.15, 39.67 2.69 M10.54 42.29 C20.79 30.74, 29.26 20.8, 45.32 2.29 M10.54 42.29 C21.97 29.78, 35.14 15.78, 45.32 2.29 M16.19 41.9 C29.62 28.41, 42.07 9.34, 50.3 2.65 M16.19 41.9 C28.32 27.84, 40.59 13.89, 50.3 2.65 M21.17 42.26 C30.22 33.88, 38.9 22.6, 55.95 2.26 M21.17 42.26 C27.85 34.08, 34.06 25.88, 55.95 2.26 M26.82 41.86 C39.48 27.9, 48.54 16, 62.24 1.11 M26.82 41.86 C39.29 28.18, 51.25 13.79, 62.24 1.11 M31.8 42.22 C42.75 29, 56.17 17.79, 65.92 2.98 M31.8 42.22 C44.28 28.29, 56.72 13.89, 65.92 2.98 M37.45 41.83 C46.59 33.42, 54.02 19.48, 70.25 4.09 M37.45 41.83 C47.32 30.31, 58.82 17.74, 70.25 4.09 M42.43 42.19 C52.72 31.88, 58.34 24.29, 71.96 8.23 M42.43 42.19 C53.13 31.87, 61.82 19.52, 71.96 8.23 M48.08 41.79 C56.95 32.11, 63.67 22.89, 73.66 12.36 M48.08 41.79 C53.85 34.19, 59.88 29, 73.66 12.36 M53.06 42.15 C56.99 34.64, 64.11 26.95, 73.4 18.76 M53.06 42.15 C59.55 33.72, 67.75 25.38, 73.4 18.76 M58.05 42.51 C62.19 39.38, 67.81 34.95, 73.14 25.15 M58.05 42.51 C62.88 36.88, 67.44 30.91, 73.14 25.15 M62.38 43.63 C65.16 41.62, 67 38.32, 72.22 32.31 M62.38 43.63 C65.79 40.54, 68.29 37.31, 72.22 32.31" stroke="#ced4da" stroke-width="0.5" fill="none"></path><path d="M10.5 0 M10.5 0 C30.82 -1.64, 48.86 -0.63, 60.5 0 M10.5 0 C25.85 -0.7, 41.03 1.01, 60.5 0 M60.5 0 C69.37 -0.57, 71.07 2.61, 71 10.5 M60.5 0 C67.72 -1.04, 72.64 5.06, 71 10.5 M71 10.5 C70.81 17.87, 72.76 25.54, 71 31.5 M71 10.5 C70.83 15.19, 70.51 22.25, 71 31.5 M71 31.5 C71.36 39.38, 68.96 40.61, 60.5 42 M71 31.5 C71.96 39.19, 65.96 39.86, 60.5 42 M60.5 42 C40.91 40.56, 22.2 43.75, 10.5 42 M60.5 42 C41.91 42.69, 23.97 43.11, 10.5 42 M10.5 42 C4.44 42.95, 1.05 39.65, 0 31.5 M10.5 42 C2.67 43.73, 1.06 39.07, 0 31.5 M0 31.5 C-0.21 25.11, -0.79 21.87, 0 10.5 M0 31.5 C-1.13 24.09, -0.26 15.51, 0 10.5 M0 10.5 C1.66 1.87, 1.71 -0.07, 10.5 0 M0 10.5 C1.83 1.32, 1.61 0.52, 10.5 0" stroke="#000000" stroke-width="1" fill="none"></path></g><g transform="translate(498 503) rotate(0 84 12.5)"><text x="0" y="18" font-family="Virgil, Segoe UI Emoji" font-size="20px" fill="#000000" text-anchor="start" style="white-space: pre;" direction="ltr">CustomNavigator</text></g><g stroke-linecap="round" transform="translate(256 732) rotate(0 35.5 23)"><path d="M3.06 2.66 C3.06 2.66, 3.06 2.66, 3.06 2.66 M3.06 2.66 C3.06 2.66, 3.06 2.66, 3.06 2.66 M1.49 10.57 C5.09 6.74, 5.9 3.83, 10.02 0.76 M1.49 10.57 C3.69 7.28, 6.84 4.42, 10.02 0.76 M1.88 16.21 C6.32 13.33, 10.25 9.76, 14.35 1.87 M1.88 16.21 C6.41 11.45, 10.79 5.95, 14.35 1.87 M1.62 22.61 C8.42 13.84, 15.87 7.78, 19.33 2.23 M1.62 22.61 C6.7 15.14, 11.53 10.75, 19.33 2.23 M2.02 28.25 C11.7 19.13, 18.87 11.81, 24.32 2.59 M2.02 28.25 C8.41 19.41, 16.11 12.74, 24.32 2.59 M1.75 34.65 C11.7 23.34, 24.24 11.97, 29.96 2.2 M1.75 34.65 C8.82 27.27, 14.86 18.85, 29.96 2.2 M2.8 39.54 C11.26 28.42, 20.45 16.72, 34.95 2.56 M2.8 39.54 C15.1 25, 27.59 9.32, 34.95 2.56 M5.17 42.92 C12.62 32.29, 23.7 23.07, 40.59 2.16 M5.17 42.92 C12.91 33.66, 21.68 24.6, 40.59 2.16 M6.87 47.05 C14.52 37.38, 24.82 28.87, 45.58 2.52 M6.87 47.05 C14.65 38.09, 24.31 28.28, 45.58 2.52 M12.52 46.66 C28.47 27.23, 43.34 10.12, 51.22 2.13 M12.52 46.66 C27.22 30.53, 42.24 13.27, 51.22 2.13 M17.5 47.02 C30.8 32.61, 43.04 20.48, 56.21 2.49 M17.5 47.02 C28.29 33.78, 41.13 20.34, 56.21 2.49 M23.15 46.62 C33.6 33.61, 43.2 24.59, 61.85 2.09 M23.15 46.62 C35.13 31.51, 49.4 16.66, 61.85 2.09 M28.13 46.98 C39.4 37.42, 47.74 23.64, 66.84 2.45 M28.13 46.98 C44.09 30.4, 59.71 10.88, 66.84 2.45 M33.78 46.59 C48.55 29.74, 59.18 14.57, 69.2 5.83 M33.78 46.59 C46.53 31.26, 59.06 17.88, 69.2 5.83 M38.76 46.95 C47.15 37.95, 52.49 33.52, 71.57 9.21 M38.76 46.95 C50.68 32.33, 63.29 18.67, 71.57 9.21 M44.41 46.55 C53.21 33.57, 64.94 23.33, 71.31 15.61 M44.41 46.55 C50.68 39.71, 56.13 33.93, 71.31 15.61 M49.39 46.91 C59.08 38.68, 68.45 28.05, 71.7 21.25 M49.39 46.91 C55.68 38.52, 64.92 30.11, 71.7 21.25 M55.04 46.52 C60.98 40.9, 66.12 33.85, 71.44 27.65 M55.04 46.52 C60.35 39.73, 66.32 34.73, 71.44 27.65 M60.02 46.88 C64.23 41.43, 66.81 37.35, 71.83 33.29 M60.02 46.88 C64 42.13, 66.36 38.98, 71.83 33.29" stroke="#ced4da" stroke-width="0.5" fill="none"></path><path d="M11.5 0 M11.5 0 C20.67 0.05, 31.99 0.74, 59.5 0 M11.5 0 C21.57 1.31, 33.69 0.21, 59.5 0 M59.5 0 C68.87 -1.81, 70.96 2.05, 71 11.5 M59.5 0 C66.9 -1.32, 69.01 3.06, 71 11.5 M71 11.5 C70.33 16.98, 70.29 24.56, 71 34.5 M71 11.5 C70 15.98, 70.51 20.49, 71 34.5 M71 34.5 C71.34 43.69, 68.46 47.41, 59.5 46 M71 34.5 C71.16 41.13, 65.84 45.64, 59.5 46 M59.5 46 C43.63 45.76, 29.51 44.54, 11.5 46 M59.5 46 C44.63 45.73, 30.64 46.03, 11.5 46 M11.5 46 C3.5 46.4, 0.53 43.86, 0 34.5 M11.5 46 C1.61 44.97, 1.09 41.86, 0 34.5 M0 34.5 C1.25 26.31, -1.92 19.74, 0 11.5 M0 34.5 C0.81 28.18, 0.61 20.04, 0 11.5 M0 11.5 C0.67 2.02, 4.47 1.64, 11.5 0 M0 11.5 C-1 1.56, 5.43 0.64, 11.5 0" stroke="#000000" stroke-width="1" fill="none"></path></g><g transform="translate(248 780) rotate(0 48 12.5)"><text x="0" y="18" font-family="Virgil, Segoe UI Emoji" font-size="20px" fill="#000000" text-anchor="start" style="white-space: pre;" direction="ltr">ViewStack</text></g><g stroke-linecap="round"><g transform="translate(287 579) rotate(0 -0.27180403206199344 70.38371653770105)"><path d="M0.15 1.16 C0.09 24.33, 0.9 115.9, 0.68 138.68 M-1.22 0.72 C-1.48 24.1, -0.3 117.08, 0.09 140.04" stroke="#000000" stroke-width="1" fill="none"></path></g><g transform="translate(287 579) rotate(0 -0.27180403206199344 70.38371653770105)"><path d="M-8.64 113.13 C-7.04 120.93, -4.31 135.83, 1.28 138.73 M-10.26 112.94 C-7.67 118.11, -5.41 124.73, -0.76 140.01" stroke="#000000" stroke-width="1" fill="none"></path></g><g transform="translate(287 579) rotate(0 -0.27180403206199344 70.38371653770105)"><path d="M11.88 112.84 C5.48 120.78, 0.21 135.79, 1.28 138.73 M10.26 112.66 C7.92 117.89, 5.25 124.58, -0.76 140.01" stroke="#000000" stroke-width="1" fill="none"></path></g></g><mask></mask><g transform="translate(297 589) rotate(0 28.5 12.5)"><text x="0" y="18" font-family="Virgil, Segoe UI Emoji" font-size="20px" fill="#000000" text-anchor="start" style="white-space: pre;" direction="ltr">stack</text></g><g stroke-linecap="round"><g transform="translate(330 549.1570736076112) rotate(0 79.24451518273912 1.7229307528463096)"><path d="M0.48 1.18 C26.63 1.59, 130.67 2.58, 157.02 2.88 M-0.73 0.76 C25.77 0.74, 132.74 0.26, 159.22 0.88" stroke="#000000" stroke-width="1" fill="none"></path></g><g transform="translate(330 549.1570736076112) rotate(0 79.24451518273912 1.7229307528463096)"><path d="M132.92 9.3 C140.1 8.65, 149.06 3.63, 159.88 -0.58 M130.42 11.92 C141.71 6.54, 152.94 4.23, 159.95 0.09" stroke="#000000" stroke-width="1" fill="none"></path></g><g transform="translate(330 549.1570736076112) rotate(0 79.24451518273912 1.7229307528463096)"><path d="M133.07 -11.22 C140.27 -5.48, 149.19 -4.12, 159.88 -0.58 M130.57 -8.6 C141.95 -6.17, 153.12 -0.68, 159.95 0.09" stroke="#000000" stroke-width="1" fill="none"></path></g></g><mask></mask><g transform="translate(333 554) rotate(0 47 12.5)"><text x="0" y="18" font-family="Virgil, Segoe UI Emoji" font-size="20px" fill="#000000" text-anchor="start" style="white-space: pre;" direction="ltr">navigator</text></g><g stroke-linecap="round" transform="translate(498 725) rotate(0 41 27)"><path d="M1.72 5.47 C1.72 5.47, 1.72 5.47, 1.72 5.47 M1.72 5.47 C1.72 5.47, 1.72 5.47, 1.72 5.47 M1.46 11.87 C3.05 9.25, 4.65 7.68, 8.02 4.32 M1.46 11.87 C3.92 8.76, 6.06 6.07, 8.02 4.32 M1.86 17.51 C4.26 12.7, 8.56 6.76, 15.63 1.67 M1.86 17.51 C5.5 12.99, 10.13 8.5, 15.63 1.67 M1.6 23.91 C8.64 15.73, 11.44 12.41, 20.62 2.03 M1.6 23.91 C7.71 18.25, 11.88 10.39, 20.62 2.03 M1.99 29.56 C7.21 23.9, 16.04 16.31, 26.26 1.63 M1.99 29.56 C8.96 22.84, 14.95 13.28, 26.26 1.63 M1.73 35.95 C13.19 21.55, 24.51 12.79, 31.25 1.99 M1.73 35.95 C11.06 24.59, 23.13 12.39, 31.25 1.99 M0.16 43.86 C9.3 34.14, 18.05 24.07, 36.89 1.6 M0.16 43.86 C11.86 29.99, 23.26 18.69, 36.89 1.6 M1.86 47.99 C15.17 33.3, 31.98 15.17, 41.88 1.96 M1.86 47.99 C12.78 35.96, 22.26 23.19, 41.88 1.96 M4.22 51.37 C13.57 40.03, 20.1 28.76, 47.52 1.56 M4.22 51.37 C15.31 39.06, 25.08 27.31, 47.52 1.56 M7.24 54 C23.9 36.27, 38.8 17.8, 52.51 1.92 M7.24 54 C23.7 35.04, 41.25 14.35, 52.51 1.92 M11.57 55.11 C22.76 42.85, 31.3 29.6, 58.15 1.53 M11.57 55.11 C25.45 38.68, 39.68 22.88, 58.15 1.53 M15.91 56.23 C28.37 38.9, 43.1 24.61, 63.14 1.89 M15.91 56.23 C32.14 37.59, 46.72 19.28, 63.14 1.89 M21.55 55.83 C34.92 42.76, 44.18 28.82, 69.44 0.74 M21.55 55.83 C34.53 39.68, 49.05 23.55, 69.44 0.74 M26.54 56.19 C35.59 43.6, 46.52 31.47, 73.77 1.85 M26.54 56.19 C36.92 44.23, 49.86 29.24, 73.77 1.85 M32.18 55.8 C41.66 44.69, 52.98 29.63, 78.1 2.97 M32.18 55.8 C48.47 36.63, 65.53 18.1, 78.1 2.97 M37.17 56.16 C48.1 42.05, 63.13 26.22, 81.12 5.59 M37.17 56.16 C48.2 41.14, 61.83 27.95, 81.12 5.59 M42.15 56.52 C55.89 42.63, 67.29 28.96, 82.17 10.48 M42.15 56.52 C52.17 43.93, 64.21 32.34, 82.17 10.48 M47.8 56.12 C57.53 44.11, 66.46 34.85, 81.91 16.88 M47.8 56.12 C56.99 44.76, 67.28 33.18, 81.91 16.88 M52.78 56.48 C59.48 49.57, 66.56 44.45, 82.31 22.52 M52.78 56.48 C61.57 45.02, 71.56 34.9, 82.31 22.52 M58.43 56.09 C65.56 50.44, 69.75 42.11, 82.04 28.92 M58.43 56.09 C68.76 44.81, 77.42 35.87, 82.04 28.92 M63.41 56.45 C71.9 49.25, 77.59 38.54, 82.44 34.56 M63.41 56.45 C70.07 47.42, 78.26 40.54, 82.44 34.56 M69.71 55.3 C75.03 50.92, 78.01 44.06, 82.18 40.96 M69.71 55.3 C74.8 49.57, 79.42 45.05, 82.18 40.96" stroke="#ced4da" stroke-width="0.5" fill="none"></path><path d="M13.5 0 M13.5 0 C32.16 -0.71, 55.29 0.05, 68.5 0 M13.5 0 C31.54 -0.57, 48.65 -0.44, 68.5 0 M68.5 0 C77.08 1.91, 80.8 5.71, 82 13.5 M68.5 0 C79.38 -1.68, 83.92 5.45, 82 13.5 M82 13.5 C83.53 24.07, 81.21 33.99, 82 40.5 M82 13.5 C82.21 19.71, 82 26.13, 82 40.5 M82 40.5 C83.29 51.07, 76.65 52.11, 68.5 54 M82 40.5 C79.84 47.32, 77.34 52.96, 68.5 54 M68.5 54 C52.89 52.31, 35.35 53.71, 13.5 54 M68.5 54 C48.02 54.62, 29.49 52.93, 13.5 54 M13.5 54 C3.04 54.22, -0.36 48.78, 0 40.5 M13.5 54 C6.26 54.7, -0.21 50.02, 0 40.5 M0 40.5 C-1.5 36.9, 2.08 27.86, 0 13.5 M0 40.5 C-0.61 31.06, 0.32 20.4, 0 13.5 M0 13.5 C-0.23 4.6, 4.44 0.95, 13.5 0 M0 13.5 C-0.69 6.33, 6.31 1.35, 13.5 0" stroke="#000000" stroke-width="1" fill="none"></path></g><g transform="translate(456 781) rotate(0 90.5 12.5)"><text x="0" y="18" font-family="Virgil, Segoe UI Emoji" font-size="20px" fill="#000000" text-anchor="start" style="white-space: pre;" direction="ltr">MateuViewProvider</text></g><g stroke-linecap="round"><g transform="translate(533 588) rotate(0 3.001233784588976 64.50221001931459)"><path d="M0.95 0.8 C2.1 22.16, 5.35 106.15, 6.02 127.53 M-0.01 0.18 C1.06 21.76, 3.86 107.64, 5.08 128.83" stroke="#000000" stroke-width="1" fill="none"></path></g><g transform="translate(533 588) rotate(0 3.001233784588976 64.50221001931459)"><path d="M-5.06 101.13 C-4.73 105.5, 0.43 113.66, 5.77 126.99 M-6.37 101.45 C-4.18 107.37, -1.67 114.85, 5.63 129.05" stroke="#000000" stroke-width="1" fill="none"></path></g><g transform="translate(533 588) rotate(0 3.001233784588976 64.50221001931459)"><path d="M15.44 100.24 C11.14 104.97, 11.66 113.34, 5.77 126.99 M14.13 100.56 C10.99 106.84, 8.16 114.56, 5.63 129.05" stroke="#000000" stroke-width="1" fill="none"></path></g></g><mask></mask><g transform="translate(542 588) rotate(0 59.5 12.5)"><text x="0" y="18" font-family="Virgil, Segoe UI Emoji" font-size="20px" fill="#000000" text-anchor="start" style="white-space: pre;" direction="ltr">viewProvider</text></g><g stroke-linecap="round"><g transform="translate(488 750) rotate(0 -76.37206560936289 -0.3756028546156358)"><path d="M-0.81 0.25 C-26.24 0.06, -128.25 -0.99, -153.7 -1.14 M0.96 -0.66 C-23.97 -0.67, -125.43 0.68, -151.36 0.33" stroke="#000000" stroke-width="1" fill="none"></path></g><g transform="translate(488 750) rotate(0 -76.37206560936289 -0.3756028546156358)"><path d="M-122.77 -11.15 C-129.12 -8.99, -133.99 -6.36, -149.55 1.59 M-123.56 -9.61 C-131.22 -7.89, -138.9 -4.78, -152.34 -0.49" stroke="#000000" stroke-width="1" fill="none"></path></g><g transform="translate(488 750) rotate(0 -76.37206560936289 -0.3756028546156358)"><path d="M-122.74 9.37 C-129.1 7.37, -133.97 5.84, -149.55 1.59 M-123.53 10.91 C-131.02 6.82, -138.71 4.1, -152.34 -0.49" stroke="#000000" stroke-width="1" fill="none"></path></g></g><mask></mask><g stroke-linecap="round"><g transform="translate(538.4709881587701 1476.0467335760627) rotate(0 -0.9457761495767727 -344.70738832934074)"><path d="M0.54 0.21 C0.31 -114.82, -1.12 -574.67, -1.29 -689.62 M-0.63 -0.73 C-1.06 -115.6, -2.38 -573.48, -2.43 -688.04" stroke="#000000" stroke-width="1" fill="none"></path></g></g><mask></mask><g transform="translate(357.813831974291 886.0156105472395) rotate(0 66 12.5)"><text x="0" y="18" font-family="Virgil, Segoe UI Emoji" font-size="20px" fill="#000000" text-anchor="start" style="white-space: pre;" direction="ltr">getView(path)</text></g><g stroke-linecap="round" transform="translate(532.2005302112557 893.103898432764) rotate(0 6.719462298385622 264.5846224758051)"><path d="M0.89 0.78 C0.89 0.78, 0.89 0.78, 0.89 0.78 M0.89 0.78 C0.89 0.78, 0.89 0.78, 0.89 0.78 M1.94 5.67 C2.87 4.81, 3.84 3.23, 5.23 1.89 M1.94 5.67 C2.91 4.8, 3.65 4.07, 5.23 1.89 M2.34 11.31 C5.17 7.91, 7.92 5.02, 11.52 0.74 M2.34 11.31 C6.06 6.93, 9.14 3.33, 11.52 0.74 M2.08 17.71 C7.86 14, 11.23 8.99, 13.89 4.12 M2.08 17.71 C6.34 13.57, 9.74 7.66, 13.89 4.12 M2.47 23.35 C4.32 20.46, 7.9 15.31, 14.28 9.76 M2.47 23.35 C7.48 17.81, 11.32 13.36, 14.28 9.76 M2.21 29.75 C4.79 25.25, 9.03 23.95, 14.02 16.16 M2.21 29.75 C5.98 25.61, 7.97 22.56, 14.02 16.16 M1.95 36.15 C6.26 29.83, 8.65 26.01, 13.76 22.56 M1.95 36.15 C3.88 32.84, 6.54 31.04, 13.76 22.56 M2.34 41.79 C6.52 40.1, 8.25 34.56, 14.15 28.2 M2.34 41.79 C5.78 37.06, 9.18 33.98, 14.15 28.2 M2.08 48.19 C4.35 43.57, 7.06 41.07, 13.89 34.6 M2.08 48.19 C6.37 43.85, 10.56 39.02, 13.89 34.6 M2.48 53.83 C4.42 50.61, 8.24 46.12, 14.29 40.24 M2.48 53.83 C5.17 50.4, 9.56 46.52, 14.29 40.24 M2.22 60.23 C7.04 57.85, 8.54 51.53, 14.03 46.64 M2.22 60.23 C4.22 56.96, 7.67 53.29, 14.03 46.64 M1.95 66.62 C5.78 62.95, 6.55 60.02, 13.76 53.04 M1.95 66.62 C6.07 62.35, 9.5 58.38, 13.76 53.04 M2.35 72.27 C5.98 69.48, 9.2 63.88, 14.16 58.68 M2.35 72.27 C6.76 67.45, 12.25 61.6, 14.16 58.68 M2.09 78.67 C6.63 72.61, 11.22 69.54, 13.9 65.08 M2.09 78.67 C6.49 73.68, 10.99 70.34, 13.9 65.08 M2.48 84.31 C4.99 78.67, 11.6 75.76, 14.29 70.72 M2.48 84.31 C6.88 79.58, 12.23 74.11, 14.29 70.72 M2.22 90.71 C6.62 88.31, 9.14 85.69, 14.03 77.12 M2.22 90.71 C4.21 87.2, 7.46 84.58, 14.03 77.12 M1.96 97.1 C6 94.47, 5.86 93.19, 13.77 83.52 M1.96 97.1 C5.75 92.79, 8.61 90.59, 13.77 83.52 M2.35 102.75 C5.3 100.3, 10 94.57, 14.16 89.16 M2.35 102.75 C5.95 100.01, 8.38 96.98, 14.16 89.16 M2.09 109.15 C3.36 106.83, 7.12 102.48, 13.9 95.56 M2.09 109.15 C6.35 103.51, 11.96 99.49, 13.9 95.56 M2.49 114.79 C7.02 110.05, 10.65 108.77, 14.3 101.2 M2.49 114.79 C5.59 110.6, 8.14 107.8, 14.3 101.2 M2.23 121.19 C4.82 116.73, 10.62 113.1, 14.03 107.6 M2.23 121.19 C5.73 116.64, 10.27 112.08, 14.03 107.6 M1.96 127.58 C6.66 122.14, 9.48 117.8, 13.77 114 M1.96 127.58 C5.32 123.62, 8.85 120.16, 13.77 114 M2.36 133.23 C7.53 128.08, 10.95 124.36, 14.17 119.64 M2.36 133.23 C5.84 129.26, 8.43 126.16, 14.17 119.64 M2.1 139.62 C4.71 133.4, 8.39 131.27, 13.91 126.04 M2.1 139.62 C7.18 135.36, 11.28 130.03, 13.91 126.04 M2.49 145.27 C3.42 142.02, 7.24 140.34, 14.3 131.68 M2.49 145.27 C6.64 141.21, 9.33 136.77, 14.3 131.68 M2.23 151.67 C5.88 150.45, 9 144.22, 14.04 138.08 M2.23 151.67 C4.63 147.6, 7.74 144.55, 14.04 138.08 M1.97 158.06 C5.22 151.06, 12.44 148.73, 13.78 144.48 M1.97 158.06 C4.33 154.86, 7.39 150.33, 13.78 144.48 M2.36 163.71 C7.59 160.19, 9.33 152.52, 14.17 150.12 M2.36 163.71 C5.78 158.83, 9.27 155.24, 14.17 150.12 M2.1 170.1 C4.87 166.17, 7.17 161.58, 13.91 156.52 M2.1 170.1 C6.43 165.42, 10.77 161.44, 13.91 156.52 M2.5 175.75 C5.76 173.51, 7.61 168.88, 14.31 162.16 M2.5 175.75 C5.34 171.87, 8.9 169.1, 14.31 162.16 M2.24 182.14 C5.01 177.18, 10.37 172.76, 14.04 168.56 M2.24 182.14 C6.12 177.32, 8.55 173.77, 14.04 168.56 M1.97 188.54 C2.95 184.82, 6.37 183.06, 13.78 174.96 M1.97 188.54 C5.63 185.11, 9.04 180.85, 13.78 174.96 M2.37 194.19 C6.81 190.97, 8.75 185.52, 14.18 180.6 M2.37 194.19 C5.34 190.9, 8.18 187.65, 14.18 180.6 M2.11 200.58 C5.69 195.41, 10.06 190.79, 13.92 187 M2.11 200.58 C5.91 197.4, 7.28 193.19, 13.92 187 M2.5 206.23 C6.19 202.27, 11.54 194.93, 14.31 192.64 M2.5 206.23 C6.55 201.03, 10.45 197.76, 14.31 192.64 M2.24 212.62 C6.28 208.32, 9.16 203.84, 14.05 199.04 M2.24 212.62 C5.76 209.16, 8.17 207.08, 14.05 199.04 M1.98 219.02 C5.88 215.17, 9.9 209.42, 13.79 205.44 M1.98 219.02 C6.21 213.61, 10.83 207.87, 13.79 205.44 M2.37 224.67 C5.22 218.73, 12.21 212.57, 14.18 211.08 M2.37 224.67 C6.04 222.15, 7.38 218.79, 14.18 211.08 M2.11 231.06 C5.33 226.08, 8.74 222.91, 13.92 217.48 M2.11 231.06 C6.86 226.51, 10.9 222.6, 13.92 217.48 M2.51 236.71 C7.23 229.86, 13.03 227.01, 14.32 223.12 M2.51 236.71 C7.85 232.2, 12.26 227.1, 14.32 223.12 M2.25 243.1 C4.36 239.78, 5.21 238.95, 14.05 229.52 M2.25 243.1 C7.62 238.65, 11.24 232.09, 14.05 229.52 M1.98 249.5 C3.57 244.41, 6.65 242.23, 13.79 235.92 M1.98 249.5 C3.95 245.71, 6.9 244.34, 13.79 235.92 M2.38 255.14 C5.95 251.52, 5.84 248.36, 14.19 241.56 M2.38 255.14 C5.45 252.39, 6.74 248.75, 14.19 241.56 M2.12 261.54 C4.83 257.6, 8.86 254.67, 13.93 247.96 M2.12 261.54 C6.2 256.55, 10.59 252.57, 13.93 247.96 M2.51 267.19 C5.03 264.69, 5.86 261.26, 14.32 253.6 M2.51 267.19 C6.96 262.74, 11.48 257.6, 14.32 253.6 M2.25 273.58 C6.3 269.25, 9.61 265.35, 14.06 260 M2.25 273.58 C6.4 269.31, 11.39 264.72, 14.06 260 M1.99 279.98 C6.15 274.88, 12.66 269.56, 13.8 266.4 M1.99 279.98 C5.12 277.11, 8.11 273.99, 13.8 266.4 M2.38 285.62 C6.32 281.73, 9.4 277.77, 14.19 272.04 M2.38 285.62 C5.85 281.49, 10.94 276.09, 14.19 272.04 M2.12 292.02 C5.94 286.72, 9.35 280.93, 13.93 278.44 M2.12 292.02 C7.21 287.45, 10.82 280.47, 13.93 278.44 M2.52 297.67 C4.53 293.76, 6.74 291.73, 14.33 284.08 M2.52 297.67 C6.45 293.05, 9.81 290.15, 14.33 284.08 M2.25 304.06 C6.72 299.46, 7.66 298.88, 14.06 290.48 M2.25 304.06 C7.07 298.95, 12.18 293.47, 14.06 290.48 M1.99 310.46 C7.92 306.62, 9.97 298.66, 13.8 296.88 M1.99 310.46 C5.27 306.57, 8.53 302.46, 13.8 296.88 M2.39 316.1 C4.95 311.33, 10.1 307.38, 14.2 302.52 M2.39 316.1 C5.25 312.09, 9.04 308.28, 14.2 302.52 M2.13 322.5 C6.49 316.22, 12.15 313.41, 13.94 308.92 M2.13 322.5 C7.22 318.28, 10.7 312.46, 13.94 308.92 M2.52 328.14 C6.47 325.19, 9.75 322.47, 14.33 314.56 M2.52 328.14 C5.71 323.87, 8.86 320.18, 14.33 314.56 M2.26 334.54 C6.52 330.68, 10.69 323.34, 14.07 320.96 M2.26 334.54 C6.06 329.18, 12.45 322.84, 14.07 320.96 M2 340.94 C6.98 337.11, 10.06 331.22, 13.81 327.36 M2 340.94 C5.62 337.1, 9.95 332.8, 13.81 327.36 M2.39 346.58 C3.64 341.33, 8.31 341.25, 14.2 333 M2.39 346.58 C5.41 344.05, 7.82 339.48, 14.2 333 M2.13 352.98 C4.06 348.92, 8.36 346.67, 13.94 339.4 M2.13 352.98 C6.66 348.44, 9.25 344.38, 13.94 339.4 M2.53 358.62 C6.29 352.41, 13.51 348.67, 14.33 345.04 M2.53 358.62 C6.1 355.23, 10.19 350.67, 14.33 345.04 M2.26 365.02 C4.31 363.06, 8.79 358.55, 14.07 351.44 M2.26 365.02 C5.05 361.2, 9 357.84, 14.07 351.44 M2 371.42 C2.79 368.69, 5.5 367.25, 13.81 357.84 M2 371.42 C6.27 366.25, 11.19 359.83, 13.81 357.84 M2.4 377.06 C6.82 373.18, 10.62 367.04, 14.21 363.48 M2.4 377.06 C4.38 374.21, 8.07 369.68, 14.21 363.48 M2.14 383.46 C5.96 379.84, 12.01 373.66, 13.95 369.88 M2.14 383.46 C5.42 380.41, 8.08 376.75, 13.95 369.88 M2.53 389.1 C8.43 383.98, 12.4 378.4, 14.34 375.52 M2.53 389.1 C6.81 384.18, 11.11 379.5, 14.34 375.52 M2.27 395.5 C6.87 393.58, 7.14 389.66, 14.08 381.92 M2.27 395.5 C5.5 393.33, 8.27 389.4, 14.08 381.92 M2.01 401.9 C5.61 396.39, 10.15 393.69, 13.82 388.31 M2.01 401.9 C5.74 397.96, 6.95 396.03, 13.82 388.31 M2.4 407.54 C5.51 404.35, 9.98 400.18, 14.21 393.96 M2.4 407.54 C4.59 404.87, 7.63 400.18, 14.21 393.96 M2.14 413.94 C4.43 410.48, 9.72 405.37, 13.95 400.36 M2.14 413.94 C5.79 409.41, 10.51 403.99, 13.95 400.36 M2.54 419.58 C4.42 416.84, 10.15 412.09, 14.34 406 M2.54 419.58 C5.28 415.8, 7.18 413.66, 14.34 406 M2.27 425.98 C6.75 421.16, 10.62 417.32, 14.08 412.4 M2.27 425.98 C5.64 421.78, 8.18 418.11, 14.08 412.4 M2.01 432.38 C6.13 428.3, 8.23 427.41, 13.82 418.79 M2.01 432.38 C4.07 429.9, 8.46 425.04, 13.82 418.79 M2.41 438.02 C3.45 434.78, 8.94 430.88, 14.22 424.44 M2.41 438.02 C5.01 434.98, 8.91 430.67, 14.22 424.44 M2.15 444.42 C6.99 440.16, 9.74 434.27, 13.95 430.83 M2.15 444.42 C6.56 440.15, 10.13 434.36, 13.95 430.83 M2.54 450.06 C5.81 444.37, 12.82 440.66, 14.35 436.48 M2.54 450.06 C7.03 444.08, 11.9 438.86, 14.35 436.48 M2.28 456.46 C7.29 451.07, 7.63 449.49, 14.09 442.88 M2.28 456.46 C4.83 454.2, 7.68 450.34, 14.09 442.88 M2.02 462.86 C4.45 459.79, 7.84 455.01, 13.83 449.27 M2.02 462.86 C6.89 457.44, 10.37 453.94, 13.83 449.27 M2.41 468.5 C5.84 464.67, 7.97 461.45, 14.22 454.92 M2.41 468.5 C5.14 466.53, 6.44 462.45, 14.22 454.92 M2.15 474.9 C4.59 471.26, 7.5 469.2, 13.96 461.31 M2.15 474.9 C6.56 469.99, 9.61 465.47, 13.96 461.31 M2.55 480.54 C7.19 476.85, 8.42 472.36, 14.35 466.96 M2.55 480.54 C6.36 475.25, 11.08 470.45, 14.35 466.96 M2.28 486.94 C5.88 483.69, 9.2 479.23, 14.09 473.36 M2.28 486.94 C6.82 481.54, 10.81 476.71, 14.09 473.36 M2.02 493.34 C3.64 490.04, 6.76 486.38, 13.83 479.75 M2.02 493.34 C4.67 490.32, 6.91 487.16, 13.83 479.75 M2.42 498.98 C5.85 497.42, 6.15 493.11, 14.23 485.4 M2.42 498.98 C5.7 495.8, 8.33 491.99, 14.23 485.4 M2.16 505.38 C7.7 500.21, 9.09 497.52, 13.96 491.79 M2.16 505.38 C6.67 500.67, 11.08 495.59, 13.96 491.79 M2.55 511.02 C8.12 507.85, 11.03 499.85, 14.36 497.44 M2.55 511.02 C6.9 506.39, 10.45 501.78, 14.36 497.44 M2.29 517.42 C4.07 515.47, 9.72 511.91, 14.1 503.83 M2.29 517.42 C5.8 514.24, 9.25 508.94, 14.1 503.83 M0.06 526.08 C5.08 519.78, 9.49 514.66, 13.84 510.23 M0.06 526.08 C5.96 521.1, 11.03 514.16, 13.84 510.23 M2.42 529.46 C6.41 525.9, 8.07 522.03, 14.23 515.88 M2.42 529.46 C5.56 524.44, 10.8 519.81, 14.23 515.88 M7.41 529.82 C10.03 526.39, 12.29 524.9, 13.97 522.27 M7.41 529.82 C8.91 528.59, 10.36 526.74, 13.97 522.27" stroke="#ced4da" stroke-width="0.5" fill="none"></path><path d="M3.36 0 M3.36 0 C5.27 0.29, 8.05 -0.23, 10.08 0 M3.36 0 C6.09 0.22, 8.57 -0.26, 10.08 0 M10.08 0 C11.55 -1.55, 12.02 0.14, 13.44 3.36 M10.08 0 C14.14 1.73, 14.06 0.8, 13.44 3.36 M13.44 3.36 C13.56 142.62, 14.4 280.96, 13.44 525.81 M13.44 3.36 C12.1 148.88, 12.49 293.96, 13.44 525.81 M13.44 525.81 C14.52 529.73, 12.35 531.13, 10.08 529.17 M13.44 525.81 C14.43 526.4, 13.71 529.46, 10.08 529.17 M10.08 529.17 C9.04 528.55, 7.31 529.6, 3.36 529.17 M10.08 529.17 C8.14 529.22, 6.69 528.95, 3.36 529.17 M3.36 529.17 C2.21 529.84, 0.86 529.46, 0 525.81 M3.36 529.17 C1.52 527.66, -1.51 525.83, 0 525.81 M0 525.81 C-1.28 385.09, -2.25 245.47, 0 3.36 M0 525.81 C-1.67 376.2, -1.58 226.18, 0 3.36 M0 3.36 C0.49 1.9, 2.14 1.8, 3.36 0 M0 3.36 C0.1 -1.15, -0.65 1.97, 3.36 0" stroke="#000000" stroke-width="1" fill="none"></path></g><g stroke-linecap="round"><g transform="translate(502.1757507683567 914.7777640704837) rotate(0 7.93870958924208 0.0031194024336400616)"><path d="M-1.13 -0.4 C1.7 -0.53, 13.77 0.25, 17.01 0.18 M0.47 -1.66 C3.14 -1.68, 13.07 1.4, 16.01 1.67" stroke="#000000" stroke-width="1" fill="none"></path></g><g transform="translate(502.1757507683567 914.7777640704837) rotate(0 7.93870958924208 0.0031194024336400616)"><path d="M7.27 2.87 C10.01 3.48, 11.85 2.83, 15.31 1.68 M7.66 2.9 C10.62 2.79, 14.06 2.03, 15.74 1.59" stroke="#000000" stroke-width="1" fill="none"></path></g><g transform="translate(502.1757507683567 914.7777640704837) rotate(0 7.93870958924208 0.0031194024336400616)"><path d="M8.43 -2.86 C10.87 -0.55, 12.36 0.52, 15.31 1.68 M8.82 -2.84 C11.28 -0.67, 14.26 0.85, 15.74 1.59" stroke="#000000" stroke-width="1" fill="none"></path></g></g><mask></mask><g stroke-linecap="round" transform="translate(886.7926120111599 720.5975327999581) rotate(0 56.28983675456095 27.31712666030171)"><path d="M1.77 5.51 C1.77 5.51, 1.77 5.51, 1.77 5.51 M1.77 5.51 C1.77 5.51, 1.77 5.51, 1.77 5.51 M1.51 11.91 C2.97 9.55, 6 6.58, 8.07 4.36 M1.51 11.91 C3.96 9.31, 6.84 6.44, 8.07 4.36 M1.9 17.55 C3.82 14.73, 9.94 8.48, 15.68 1.7 M1.9 17.55 C5.97 13.44, 9.63 10.42, 15.68 1.7 M1.64 23.95 C7.72 18.72, 13.49 9.51, 20.66 2.06 M1.64 23.95 C8.95 17.57, 14.49 8.85, 20.66 2.06 M1.38 30.35 C10.26 22.61, 16.69 14.61, 26.31 1.67 M1.38 30.35 C7.43 24.31, 11.4 18.99, 26.31 1.67 M1.77 35.99 C10.77 28.52, 15.68 18.32, 31.3 2.03 M1.77 35.99 C11.84 24.8, 20.3 14.8, 31.3 2.03 M1.51 42.39 C14.01 28.4, 27.96 10.57, 36.94 1.63 M1.51 42.39 C13.62 29.69, 25.46 14, 36.94 1.63 M3.22 46.52 C15.06 33.28, 25.08 21.3, 41.93 1.99 M3.22 46.52 C11.4 37.74, 18.13 27.21, 41.93 1.99 M4.27 51.41 C14.3 38.99, 26.3 29.55, 47.57 1.6 M4.27 51.41 C18.31 37.57, 30.28 20.65, 47.57 1.6 M7.29 54.04 C26.07 35.97, 41.1 14.79, 52.56 1.96 M7.29 54.04 C20.7 38.42, 35.22 22.35, 52.56 1.96 M11.62 55.15 C27.37 39.21, 42.97 21.89, 58.2 1.57 M11.62 55.15 C27.14 37.85, 43.23 20.24, 58.2 1.57 M15.95 56.26 C30.89 37.91, 46.66 21.39, 63.19 1.93 M15.95 56.26 C26.42 44.81, 36.78 32.43, 63.19 1.93 M20.94 56.62 C34.4 41.94, 44.27 29.34, 68.83 1.53 M20.94 56.62 C32.47 43.21, 44.78 28.69, 68.83 1.53 M26.58 56.23 C38.29 42.3, 54.69 26.46, 73.82 1.89 M26.58 56.23 C37.9 43.35, 47.38 30.9, 73.82 1.89 M31.57 56.59 C46.25 41, 61.17 23.18, 79.46 1.5 M31.57 56.59 C43.01 42.25, 53.6 29.53, 79.46 1.5 M37.21 56.2 C56.3 33.8, 70.57 15.8, 84.45 1.86 M37.21 56.2 C51.66 39.45, 67.19 23.95, 84.45 1.86 M42.2 56.56 C54.09 46.79, 62.33 33.67, 90.09 1.46 M42.2 56.56 C55.92 39.44, 71.46 22.96, 90.09 1.46 M47.84 56.16 C59.98 37.85, 75.73 22.07, 95.08 1.82 M47.84 56.16 C60.36 41.61, 73.2 27.2, 95.08 1.82 M52.83 56.52 C69.68 34.42, 90.71 13.21, 100.72 1.43 M52.83 56.52 C70.2 37.8, 85.52 18.45, 100.72 1.43 M58.47 56.13 C73.59 37.32, 89.59 18.58, 105.05 2.54 M58.47 56.13 C69.79 44.18, 81.47 30.17, 105.05 2.54 M63.46 56.49 C78.86 39.23, 92.31 24.29, 109.38 3.66 M63.46 56.49 C77.97 38.77, 93.35 20.84, 109.38 3.66 M68.44 56.85 C83.01 40.31, 98.76 21.39, 112.4 6.28 M68.44 56.85 C77.94 45.89, 87.43 34.48, 112.4 6.28 M74.09 56.45 C86.84 39.89, 99.77 23.25, 113.45 11.17 M74.09 56.45 C88.49 39.95, 102.75 22.88, 113.45 11.17 M79.07 56.81 C90.88 42.66, 99.66 32.13, 113.19 17.57 M79.07 56.81 C86.95 45.6, 97.79 36.45, 113.19 17.57 M84.72 56.42 C93.7 45.16, 103.43 37.2, 113.58 23.21 M84.72 56.42 C94.31 46.42, 103.57 35.19, 113.58 23.21 M89.7 56.78 C93.89 50.89, 100.21 41.2, 113.32 29.61 M89.7 56.78 C98.18 48.18, 106.06 39.32, 113.32 29.61 M95.35 56.38 C100.39 50.12, 108.76 43.42, 113.72 35.25 M95.35 56.38 C100.03 50.03, 105.77 45.8, 113.72 35.25 M100.99 55.99 C106.03 49.66, 108.2 46.48, 113.45 41.65 M100.99 55.99 C103.14 53.07, 107.69 49.23, 113.45 41.65" stroke="#ced4da" stroke-width="0.5" fill="none"></path><path d="M13.66 0 M13.66 0 C40.43 1.49, 71.12 -0.79, 98.92 0 M13.66 0 C34.16 0.79, 53.98 0.76, 98.92 0 M98.92 0 C106.97 0.34, 110.68 6.31, 112.58 13.66 M98.92 0 C108.86 1.83, 110.71 5.29, 112.58 13.66 M112.58 13.66 C114.44 22.17, 114.74 36.56, 112.58 40.98 M112.58 13.66 C113.3 22.59, 113.06 29.19, 112.58 40.98 M112.58 40.98 C114.38 51.93, 107.55 53.76, 98.92 54.63 M112.58 40.98 C111.82 51.87, 108.81 52.76, 98.92 54.63 M98.92 54.63 C78.46 53.33, 62.17 53.07, 13.66 54.63 M98.92 54.63 C79.67 54.86, 61.53 56, 13.66 54.63 M13.66 54.63 C3.59 52.92, -1.33 48.35, 0 40.98 M13.66 54.63 C2.45 55.15, 1.08 50.52, 0 40.98 M0 40.98 C-1.67 34.43, 0.29 28.21, 0 13.66 M0 40.98 C-0.69 30.88, -0.08 19.47, 0 13.66 M0 13.66 C-0.08 6.23, 2.6 -0.18, 13.66 0 M0 13.66 C-1.96 4.71, 4.75 -1.85, 13.66 0" stroke="#000000" stroke-width="1" fill="none"></path></g><g transform="translate(901.692862916779 685.1081978566353) rotate(0 53.5 12.5)"><text x="0" y="18" font-family="Virgil, Segoe UI Emoji" font-size="20px" fill="#000000" text-anchor="start" style="white-space: pre;" direction="ltr">Dispatcher</text></g><g stroke-linecap="round"><g transform="translate(941.4268653317631 783.50970329035) rotate(0 3.700811016540797 311.95993372806095)"><path d="M-0.21 0.48 C1.37 104.43, 7.87 518.79, 9.18 622.62 M-1.78 -0.31 C-0.26 103.95, 7.32 520.56, 8.7 624.23" stroke="#000000" stroke-width="1" fill="none"></path></g></g><mask></mask><g stroke-linecap="round" transform="translate(934.8045315959325 957.3459638559061) rotate(0 8.277917169788338 49.66750301873037)"><path d="M1.1 0.96 C1.1 0.96, 1.1 0.96, 1.1 0.96 M1.1 0.96 C1.1 0.96, 1.1 0.96, 1.1 0.96 M2.15 5.85 C3.6 4.51, 4.51 2.91, 6.09 1.32 M2.15 5.85 C3.59 3.93, 5.36 2.12, 6.09 1.32 M1.89 12.24 C5.14 9.09, 7.13 4.62, 11.08 1.68 M1.89 12.24 C4.29 10.45, 6.07 7.27, 11.08 1.68 M2.29 17.89 C7.83 10, 13.75 5.41, 16.06 2.04 M2.29 17.89 C5.81 14.46, 8.23 10.81, 16.06 2.04 M2.02 24.28 C6.55 14.99, 14.56 10.76, 18.43 5.42 M2.02 24.28 C6.88 16.66, 13.88 10.43, 18.43 5.42 M1.76 30.68 C4.81 27.91, 11.02 19.45, 18.16 11.81 M1.76 30.68 C6.36 26.02, 9.32 22.15, 18.16 11.81 M2.16 36.33 C4.34 33.42, 7.49 28.2, 18.56 17.46 M2.16 36.33 C6.91 29.82, 12.9 22.86, 18.56 17.46 M1.9 42.72 C5.82 37.25, 10.74 34.11, 18.3 23.86 M1.9 42.72 C5.87 38.18, 10.28 33.32, 18.3 23.86 M2.29 48.37 C8.63 40.93, 13.78 36.77, 18.04 30.25 M2.29 48.37 C7.17 42.29, 12.05 36.02, 18.04 30.25 M2.03 54.76 C7.97 50.47, 9.92 45.83, 18.43 35.9 M2.03 54.76 C5.69 49.99, 10.52 45.71, 18.43 35.9 M1.77 61.16 C7.02 53.09, 12.47 49.04, 18.17 42.29 M1.77 61.16 C5.53 57.25, 8.11 52.52, 18.17 42.29 M2.16 66.81 C7.69 60.81, 11.94 56.04, 18.56 47.94 M2.16 66.81 C7.5 59.56, 12.8 54.13, 18.56 47.94 M1.9 73.2 C6.94 67.38, 10.8 62.09, 18.3 54.34 M1.9 73.2 C5.99 66.93, 11.88 61.39, 18.3 54.34 M2.3 78.85 C7.04 73.73, 15.8 64.96, 18.04 60.73 M2.3 78.85 C5.78 74.55, 10.95 70, 18.04 60.73 M2.03 85.24 C8.43 79.95, 12.72 71.32, 18.44 66.38 M2.03 85.24 C7.2 79.23, 10.48 75.1, 18.44 66.38 M1.77 91.64 C9.18 85.5, 16.22 76.98, 18.17 72.77 M1.77 91.64 C6.5 87.3, 11.07 80.84, 18.17 72.77 M2.17 97.28 C4.89 93.79, 11.9 87.41, 18.57 78.42 M2.17 97.28 C4.76 92.74, 8.96 88.87, 18.57 78.42 M4.53 100.66 C11.45 95.68, 16.31 89.44, 18.31 84.81 M4.53 100.66 C8.8 97.08, 11.22 91.88, 18.31 84.81 M9.52 101.02 C13.72 98.38, 16.87 92.95, 18.05 91.21 M9.52 101.02 C12.55 98.36, 14.49 94.94, 18.05 91.21" stroke="#ced4da" stroke-width="0.5" fill="none"></path><path d="M4.14 0 M4.14 0 C8 -0.88, 11.3 0.74, 12.42 0 M4.14 0 C6.89 0.46, 9.22 -0.12, 12.42 0 M12.42 0 C16.98 1.85, 16.08 0.51, 16.56 4.14 M12.42 0 C14.42 1.79, 17.34 -0.49, 16.56 4.14 M16.56 4.14 C14.16 22.94, 16.7 42.8, 16.56 95.2 M16.56 4.14 C15.29 23.15, 15.49 43.88, 16.56 95.2 M16.56 95.2 C15.59 96.24, 13.85 97.6, 12.42 99.34 M16.56 95.2 C14.46 98.47, 16.26 99.78, 12.42 99.34 M12.42 99.34 C9.91 98.93, 8.98 98.74, 4.14 99.34 M12.42 99.34 C8.81 99.63, 5.82 99.34, 4.14 99.34 M4.14 99.34 C1.3 101.01, -1.95 97.77, 0 95.2 M4.14 99.34 C-0.58 99.49, 0.2 96.11, 0 95.2 M0 95.2 C-2.2 71.28, 0.09 47.37, 0 4.14 M0 95.2 C0.12 69.03, -0.1 42.51, 0 4.14 M0 4.14 C-1.36 2.48, 1.54 0.33, 4.14 0 M0 4.14 C-0.08 2.85, 3.32 2.06, 4.14 0" stroke="#000000" stroke-width="1" fill="none"></path></g><g stroke-linecap="round"><g transform="translate(552.9585636608556 966.2939458221406) rotate(0 184.02569474597811 -2.2791151889573484)"><path d="M-0.13 -0.33 C61.48 -0.85, 308.15 -3.5, 369.7 -4.22 M-1.65 -1.56 C59.85 -1.79, 307.47 -2.44, 369.17 -2.8" stroke="#000000" stroke-width="1" fill="none"></path></g><g transform="translate(552.9585636608556 966.2939458221406) rotate(0 184.02569474597811 -2.2791151889573484)"><path d="M340.46 8.87 C349.41 4.84, 357.32 3.11, 368.52 -2.33 M341.71 8.21 C347.69 6.56, 351.44 2.89, 369.26 -2.76" stroke="#000000" stroke-width="1" fill="none"></path></g><g transform="translate(552.9585636608556 966.2939458221406) rotate(0 184.02569474597811 -2.2791151889573484)"><path d="M340.38 -11.65 C349.16 -9.37, 357.1 -4.79, 368.52 -2.33 M341.63 -12.31 C347.44 -9.85, 351.21 -9.41, 369.26 -2.76" stroke="#000000" stroke-width="1" fill="none"></path></g></g><mask></mask><g transform="translate(585.4764270308624 938.4124632521598) rotate(0 140.5 12.5)"><text x="0" y="18" font-family="Virgil, Segoe UI Emoji" font-size="20px" fill="#000000" text-anchor="start" style="white-space: pre;" direction="ltr">dispatch(this, path, privada)</text></g><g stroke-linecap="round" transform="translate(541.5212097382355 1074.0371771856726) rotate(0 4.966750301872992 22.35037635842866)"><path d="M-0.08 2.58 C-0.08 2.58, -0.08 2.58, -0.08 2.58 M-0.08 2.58 C-0.08 2.58, -0.08 2.58, -0.08 2.58 M0.31 8.22 C2.68 6.12, 4.3 3.88, 5.56 2.18 M0.31 8.22 C2.05 6.44, 3.39 4.23, 5.56 2.18 M0.05 14.62 C3.74 12.54, 5.65 6.6, 10.55 2.54 M0.05 14.62 C2.93 10.01, 7.26 7.17, 10.55 2.54 M-0.21 21.02 C3.39 16.66, 7.84 13.04, 10.29 8.94 M-0.21 21.02 C1.48 18.02, 3.65 15.45, 10.29 8.94 M0.18 26.66 C3.55 22.44, 9.57 16.68, 10.02 15.34 M0.18 26.66 C4.53 23.19, 6.9 17.53, 10.02 15.34 M-0.08 33.06 C2.38 31.35, 4.25 25.5, 10.42 20.98 M-0.08 33.06 C2.62 30.86, 4.2 27.74, 10.42 20.98 M0.32 38.7 C4.03 34.36, 6.38 31.88, 10.16 27.38 M0.32 38.7 C2.94 35.77, 4.3 34.25, 10.16 27.38 M0.71 44.34 C3.62 41.77, 8.2 37.78, 10.55 33.02 M0.71 44.34 C3.34 40.78, 6.59 37.15, 10.55 33.02 M5.7 44.7 C6.07 42.99, 7.93 41.73, 10.29 39.42 M5.7 44.7 C7.29 43.32, 8.25 41.42, 10.29 39.42" stroke="#ced4da" stroke-width="0.5" fill="none"></path><path d="M2.48 0 M2.48 0 C4.55 -0.08, 6.12 0.23, 7.45 0 M2.48 0 C3.92 0.04, 5.87 -0.19, 7.45 0 M7.45 0 C7.75 0.13, 10.48 0.22, 9.93 2.48 M7.45 0 C8.81 -0.62, 7.82 1.3, 9.93 2.48 M9.93 2.48 C8.16 12.33, 9.25 25.23, 9.93 42.22 M9.93 2.48 C9.43 15.34, 10.3 27.23, 9.93 42.22 M9.93 42.22 C10.75 44.69, 8.82 43.15, 7.45 44.7 M9.93 42.22 C10.14 43.91, 8.2 46.15, 7.45 44.7 M7.45 44.7 C5.7 44.94, 3.69 44.78, 2.48 44.7 M7.45 44.7 C6.1 44.64, 4.9 44.62, 2.48 44.7 M2.48 44.7 C1.18 45.19, 0.44 43.56, 0 42.22 M2.48 44.7 C2.61 42.81, 1.88 43.78, 0 42.22 M0 42.22 C-1.76 30.11, 1.59 18.98, 0 2.48 M0 42.22 C-0.76 31.93, 0.92 20.62, 0 2.48 M0 2.48 C0.23 0.2, 0.75 -1.71, 2.48 0 M0 2.48 C-0.1 3.07, 1.97 1.87, 2.48 0" stroke="#000000" stroke-width="1" fill="none"></path></g><g transform="translate(573.8873429931587 1079.1370551385626) rotate(0 114 12.5)"><text x="0" y="18" font-family="Virgil, Segoe UI Emoji" font-size="20px" fill="#000000" text-anchor="start" style="white-space: pre;" direction="ltr">view = stack.getLast()</text></g><g stroke-linecap="round" transform="translate(1163.2750454820919 710.664032196212) rotate(0 48.01191958477273 25.66154322634395)"><path d="M3.42 2.97 C3.42 2.97, 3.42 2.97, 3.42 2.97 M3.42 2.97 C3.42 2.97, 3.42 2.97, 3.42 2.97 M1.84 10.88 C3.27 8.09, 4.68 8.09, 9.06 2.57 M1.84 10.88 C2.9 9.11, 4.88 7.45, 9.06 2.57 M1.58 17.27 C5.53 13.54, 12.22 5.82, 14.7 2.18 M1.58 17.27 C6.41 12.56, 10.86 8.19, 14.7 2.18 M1.97 22.92 C4.77 16.82, 10.13 14.07, 20.34 1.79 M1.97 22.92 C6.03 17.48, 11.63 11.9, 20.34 1.79 M1.71 29.31 C10.39 19.93, 20.55 7.57, 25.33 2.15 M1.71 29.31 C9.24 21.69, 16.1 13.59, 25.33 2.15 M1.45 35.71 C10.19 25.19, 19.85 17.42, 30.97 1.75 M1.45 35.71 C11.89 24.19, 21.2 13.03, 30.97 1.75 M1.19 42.11 C9.42 31.64, 17.98 22.46, 35.96 2.11 M1.19 42.11 C13.16 28.36, 24.49 16.17, 35.96 2.11 M2.24 47 C11.57 33.28, 25.97 20.6, 41.6 1.72 M2.24 47 C12.24 35.5, 24.67 22.68, 41.6 1.72 M5.26 49.62 C16.59 34.74, 33.12 20.99, 46.59 2.08 M5.26 49.62 C21.04 31.8, 36.45 13.54, 46.59 2.08 M9.59 50.74 C25.28 32.83, 37.42 18.86, 52.23 1.68 M9.59 50.74 C22.32 37.21, 33.48 23.7, 52.23 1.68 M13.92 51.85 C28.45 37.45, 41.73 21.87, 57.22 2.04 M13.92 51.85 C31.08 32.53, 46.98 13.74, 57.22 2.04 M18.91 52.21 C29.62 39.25, 41.86 23.78, 62.86 1.65 M18.91 52.21 C34.61 34.13, 51.51 14.72, 62.86 1.65 M24.55 51.82 C42.3 30.66, 59.86 12.82, 67.85 2.01 M24.55 51.82 C36.02 38.5, 46.15 27.69, 67.85 2.01 M29.54 52.18 C43.73 33.94, 61.17 16.61, 73.49 1.61 M29.54 52.18 C41.51 39.74, 53.28 24.7, 73.49 1.61 M35.18 51.78 C47.23 40.36, 55.46 27.35, 78.48 1.97 M35.18 51.78 C44.59 39.2, 55.39 28.09, 78.48 1.97 M40.17 52.14 C58.53 30.2, 76.78 10.06, 84.78 0.82 M40.17 52.14 C56.06 33.69, 70.92 17.36, 84.78 0.82 M45.81 51.75 C60.45 32.32, 75.64 14.67, 89.11 1.94 M45.81 51.75 C61.72 32.4, 78.69 13.11, 89.11 1.94 M50.8 52.11 C58.28 41.53, 67.05 33.23, 92.79 3.81 M50.8 52.11 C61.29 39.61, 73.73 26.29, 92.79 3.81 M56.44 51.71 C73.14 34.21, 86.31 14.66, 95.81 6.43 M56.44 51.71 C68.56 39.03, 79.52 23.79, 95.81 6.43 M61.43 52.07 C74.1 37.56, 85.46 26.54, 96.86 11.32 M61.43 52.07 C72.64 37.37, 84.5 23.72, 96.86 11.32 M66.42 52.43 C76.54 37.44, 89.29 24.44, 97.25 16.96 M66.42 52.43 C78.73 39.19, 90.19 24.99, 97.25 16.96 M72.06 52.04 C80.45 40.12, 87.27 34.09, 96.99 23.36 M72.06 52.04 C81.93 40.22, 90.6 30.45, 96.99 23.36 M77.05 52.4 C84.1 43.22, 91.52 35.86, 97.38 29 M77.05 52.4 C84.6 42.92, 92.67 34.18, 97.38 29 M83.35 51.25 C86.2 47.09, 94.13 40.78, 97.12 35.4 M83.35 51.25 C87.12 47.5, 90.04 43.5, 97.12 35.4 M89.64 50.1 C92.1 47.24, 95.14 43.33, 98.17 40.29 M89.64 50.1 C91.8 47.66, 93.91 45.04, 98.17 40.29" stroke="#ced4da" stroke-width="0.5" fill="none"></path><path d="M12.83 0 M12.83 0 C32.22 1.04, 53.25 -0.13, 83.19 0 M12.83 0 C31.55 -0.04, 52.41 -0.5, 83.19 0 M83.19 0 C92.83 -1.74, 95.96 4.03, 96.02 12.83 M83.19 0 C93.14 1.93, 95.57 3.45, 96.02 12.83 M96.02 12.83 C97.79 17.29, 95.59 23.23, 96.02 38.49 M96.02 12.83 C96.8 21.15, 96.45 31.31, 96.02 38.49 M96.02 38.49 C95.1 48.24, 93.41 52.47, 83.19 51.32 M96.02 38.49 C95.31 48.85, 92.15 52.39, 83.19 51.32 M83.19 51.32 C64.28 50.72, 46.47 52.84, 12.83 51.32 M83.19 51.32 C60.68 50.62, 36.66 50.88, 12.83 51.32 M12.83 51.32 C4.18 50.32, 1.74 48.78, 0 38.49 M12.83 51.32 C5.08 52.72, 0.31 46.22, 0 38.49 M0 38.49 C1.5 30.82, -0.39 22.91, 0 12.83 M0 38.49 C-0.36 31.76, -0.61 27.15, 0 12.83 M0 12.83 C-0.16 5.7, 2.29 0.86, 12.83 0 M0 12.83 C1.46 3.06, 2.3 1.14, 12.83 0" stroke="#000000" stroke-width="1" fill="none"></path></g><g transform="translate(1171.5529626518803 675.174697252889) rotate(0 20 12.5)"><text x="0" y="18" font-family="Virgil, Segoe UI Emoji" font-size="20px" fill="#000000" text-anchor="start" style="white-space: pre;" direction="ltr">view</text></g><g stroke-linecap="round"><g transform="translate(1205.930570616366 771.2103711086281) rotate(0 3.8441247400267002 311.20273442495363)"><path d="M0.3 -0.97 C1.59 102.99, 7.29 519.62, 8.69 623.38 M-1 1.13 C0.09 104.8, 6.43 518.18, 7.96 621.71" stroke="#000000" stroke-width="1" fill="none"></path></g></g><mask></mask><g stroke-linecap="round"><g transform="translate(557.7608013772317 1161.2599375669083) rotate(0 316.4363601043458 0.9157850812077868)"><path d="M-0.26 -0.69 C105.23 -0.38, 527.64 0.66, 633.13 1.16 M1.8 1.57 C107.2 2.11, 527.55 2.68, 632.61 2.47" stroke="#000000" stroke-width="1" fill="none"></path></g><g transform="translate(557.7608013772317 1161.2599375669083) rotate(0 316.4363601043458 0.9157850812077868)"><path d="M603.27 14.08 C612.62 10.21, 623.37 5.4, 633.69 4.15 M603.7 13.34 C612.94 8.87, 620.69 6.45, 633.41 1.55" stroke="#000000" stroke-width="1" fill="none"></path></g><g transform="translate(557.7608013772317 1161.2599375669083) rotate(0 316.4363601043458 0.9157850812077868)"><path d="M603.28 -6.44 C612.5 -3.87, 623.25 -2.24, 633.69 4.15 M603.7 -7.18 C613.15 -5.46, 620.89 -1.7, 633.41 1.55" stroke="#000000" stroke-width="1" fill="none"></path></g></g><mask></mask><g stroke-linecap="round" transform="translate(1203.0090478970765 1139.4601415912502) rotate(0 8.277917169788338 49.66750301873037)"><path d="M1.1 0.96 C1.1 0.96, 1.1 0.96, 1.1 0.96 M1.1 0.96 C1.1 0.96, 1.1 0.96, 1.1 0.96 M2.15 5.85 C3.41 4.24, 4.05 3.56, 6.09 1.32 M2.15 5.85 C3.43 4.02, 5.1 2.54, 6.09 1.32 M1.89 12.24 C4.38 9.12, 8.44 3.95, 11.08 1.68 M1.89 12.24 C5.45 7.78, 9.54 4.59, 11.08 1.68 M2.29 17.89 C7.61 13.04, 11.4 5.74, 16.06 2.04 M2.29 17.89 C7.8 12.1, 13.54 6.16, 16.06 2.04 M2.02 24.28 C4.77 19.86, 9.61 14.38, 18.43 5.42 M2.02 24.28 C8.81 17.06, 14.19 9.63, 18.43 5.42 M1.76 30.68 C6.46 24.73, 10.96 18.27, 18.16 11.81 M1.76 30.68 C6.1 24, 12.68 18.26, 18.16 11.81 M2.16 36.33 C9.7 28.19, 12.8 23.24, 18.56 17.46 M2.16 36.33 C6.32 31.88, 10.26 25.92, 18.56 17.46 M1.9 42.72 C5.96 35.66, 14.75 30.38, 18.3 23.86 M1.9 42.72 C5.21 37.4, 10.58 32.07, 18.3 23.86 M2.29 48.37 C5.14 44.12, 10.6 38.12, 18.04 30.25 M2.29 48.37 C4.62 44.99, 8.04 40.58, 18.04 30.25 M2.03 54.76 C7.84 48.16, 13.33 43.49, 18.43 35.9 M2.03 54.76 C6.21 48.86, 11.24 45.13, 18.43 35.9 M1.77 61.16 C5.78 53.71, 11.92 49.18, 18.17 42.29 M1.77 61.16 C5.7 56.46, 9.72 51.59, 18.17 42.29 M2.16 66.81 C7.29 61.27, 12.22 57.68, 18.56 47.94 M2.16 66.81 C6.49 62.2, 9.27 58.62, 18.56 47.94 M1.9 73.2 C6.18 67.9, 8.94 66.28, 18.3 54.34 M1.9 73.2 C7.1 67.14, 13.16 61.92, 18.3 54.34 M2.3 78.85 C6.02 74.36, 10.47 70.19, 18.04 60.73 M2.3 78.85 C7.4 72.68, 14.2 65.32, 18.04 60.73 M2.03 85.24 C6.97 81.19, 11.27 73.44, 18.44 66.38 M2.03 85.24 C5.3 80.96, 8.8 76.33, 18.44 66.38 M1.77 91.64 C8.29 82.93, 14.31 77.99, 18.17 72.77 M1.77 91.64 C5.5 86.31, 10.53 80.43, 18.17 72.77 M2.17 97.28 C7.47 90.68, 10.73 87.38, 18.57 78.42 M2.17 97.28 C5.95 93.41, 8.88 89.24, 18.57 78.42 M4.53 100.66 C8.29 98.59, 10.72 92.37, 18.31 84.81 M4.53 100.66 C9.99 94.57, 14.71 87.65, 18.31 84.81 M9.52 101.02 C12.39 98.61, 12.57 97.88, 18.05 91.21 M9.52 101.02 C11.69 98.61, 14.13 95.51, 18.05 91.21" stroke="#ced4da" stroke-width="0.5" fill="none"></path><path d="M4.14 0 M4.14 0 C5.18 0, 8.39 0.49, 12.42 0 M4.14 0 C6.06 0.38, 8.81 0.19, 12.42 0 M12.42 0 C14.88 0.98, 18.05 1.28, 16.56 4.14 M12.42 0 C16.42 2.3, 16.82 0.34, 16.56 4.14 M16.56 4.14 C16.57 37.51, 17.58 70.3, 16.56 95.2 M16.56 4.14 C16.25 36.6, 16.5 66.65, 16.56 95.2 M16.56 95.2 C15.11 97.94, 16.46 98.42, 12.42 99.34 M16.56 95.2 C15.63 96.92, 13.33 99.12, 12.42 99.34 M12.42 99.34 C9.63 98.53, 5.36 99.25, 4.14 99.34 M12.42 99.34 C9.3 99.78, 6.94 99.71, 4.14 99.34 M4.14 99.34 C0.27 100.05, -0.5 98.46, 0 95.2 M4.14 99.34 C2.85 99.07, -1.34 98.09, 0 95.2 M0 95.2 C1.95 66.43, -0.42 41, 0 4.14 M0 95.2 C0.33 63.16, -0.05 32.47, 0 4.14 M0 4.14 C1.84 0.46, 0.36 0.18, 4.14 0 M0 4.14 C1.47 2.25, 1.33 -2.17, 4.14 0" stroke="#000000" stroke-width="1" fill="none"></path></g><g transform="translate(770.9017716341225 1133.771308459166) rotate(0 74.5 12.5)"><text x="0" y="18" font-family="Virgil, Segoe UI Emoji" font-size="20px" fill="#000000" text-anchor="start" style="white-space: pre;" direction="ltr">buildIfNeeded()</text></g><g stroke-linecap="round" transform="translate(540.6333517032633 1353.9992440827332) rotate(0 4.966750301872992 22.35037635842866)"><path d="M-0.08 2.58 C-0.08 2.58, -0.08 2.58, -0.08 2.58 M-0.08 2.58 C-0.08 2.58, -0.08 2.58, -0.08 2.58 M0.31 8.22 C1.1 6.82, 2.8 4.87, 5.56 2.18 M0.31 8.22 C2.08 5.69, 4.18 3.71, 5.56 2.18 M0.05 14.62 C3.21 10.32, 8.1 7.2, 10.55 2.54 M0.05 14.62 C2.44 10.8, 5.93 7.91, 10.55 2.54 M-0.21 21.02 C4.54 17.82, 7.2 11.54, 10.29 8.94 M-0.21 21.02 C2.94 17.72, 5.23 13.63, 10.29 8.94 M0.18 26.66 C2.74 24.41, 4.69 21.6, 10.02 15.34 M0.18 26.66 C3.72 22.72, 6.27 20.43, 10.02 15.34 M-0.08 33.06 C3.73 31.3, 4.08 25.54, 10.42 20.98 M-0.08 33.06 C3.47 29.55, 5.5 26.22, 10.42 20.98 M0.32 38.7 C2.41 34.68, 5.8 33.12, 10.16 27.38 M0.32 38.7 C1.95 36.49, 4.67 34.27, 10.16 27.38 M0.71 44.34 C4.12 41.37, 7.25 34.89, 10.55 33.02 M0.71 44.34 C2.43 42.17, 5.43 39.75, 10.55 33.02 M5.7 44.7 C7.53 42.79, 8.82 41.66, 10.29 39.42 M5.7 44.7 C7.19 42.55, 9.28 40.9, 10.29 39.42" stroke="#ced4da" stroke-width="0.5" fill="none"></path><path d="M2.48 0 M2.48 0 C4.39 -0.18, 6.15 0.43, 7.45 0 M2.48 0 C4.37 0.2, 6.04 0.19, 7.45 0 M7.45 0 C8.72 -0.24, 11.13 1.81, 9.93 2.48 M7.45 0 C7.37 -1.31, 7.74 0.34, 9.93 2.48 M9.93 2.48 C9.44 16, 9.3 23.76, 9.93 42.22 M9.93 2.48 C10.3 16.46, 8.66 30.4, 9.93 42.22 M9.93 42.22 C10.21 44.74, 11.01 46.57, 7.45 44.7 M9.93 42.22 C10.4 42.21, 10.96 44.9, 7.45 44.7 M7.45 44.7 C5.92 44.37, 3.63 45.17, 2.48 44.7 M7.45 44.7 C5.78 44.65, 4.09 44.96, 2.48 44.7 M2.48 44.7 C-0.01 45.96, 1.54 44.36, 0 42.22 M2.48 44.7 C-1.25 46.55, -1.93 42.52, 0 42.22 M0 42.22 C0.2 28.02, 0.97 12.23, 0 2.48 M0 42.22 C1.04 28.32, -0.35 14.14, 0 2.48 M0 2.48 C-1.84 1.5, 0.41 -1.2, 2.48 0 M0 2.48 C-1.96 1.8, -0.32 -0.19, 2.48 0" stroke="#000000" stroke-width="1" fill="none"></path></g><g transform="translate(564.8090528706409 1368.9503663466207) rotate(0 76.5 12.5)"><text x="0" y="18" font-family="Virgil, Segoe UI Emoji" font-size="20px" fill="#000000" text-anchor="start" style="white-space: pre;" direction="ltr">markMenu(path)</text></g><g stroke-linecap="round" transform="translate(1552.2611517315374 698.1132301464013) rotate(0 56.28983675456095 27.31712666030171)"><path d="M1.77 5.51 C1.77 5.51, 1.77 5.51, 1.77 5.51 M1.77 5.51 C1.77 5.51, 1.77 5.51, 1.77 5.51 M1.51 11.91 C4.13 9.83, 5.43 7.97, 8.07 4.36 M1.51 11.91 C3.91 9.34, 6.82 5.63, 8.07 4.36 M1.9 17.55 C4.33 14.73, 7.6 9.09, 15.68 1.7 M1.9 17.55 C4.16 15.26, 7.56 10.42, 15.68 1.7 M1.64 23.95 C6.83 18.28, 10.28 10.42, 20.66 2.06 M1.64 23.95 C7.47 16.97, 14.5 8.76, 20.66 2.06 M1.38 30.35 C5.86 24.67, 10.37 18.97, 26.31 1.67 M1.38 30.35 C5.99 24.8, 13.19 17.06, 26.31 1.67 M1.77 35.99 C13.25 22.54, 24.03 9.63, 31.3 2.03 M1.77 35.99 C12.98 22.17, 25.24 10.35, 31.3 2.03 M1.51 42.39 C13.89 30.92, 24.06 16.72, 36.94 1.63 M1.51 42.39 C10.15 33.08, 18.09 22.08, 36.94 1.63 M3.22 46.52 C12.49 37.72, 21.83 28.61, 41.93 1.99 M3.22 46.52 C13.31 36.43, 22.18 24.3, 41.93 1.99 M4.27 51.41 C21.43 32.58, 36.13 16.14, 47.57 1.6 M4.27 51.41 C17.82 35.41, 31.06 20.78, 47.57 1.6 M7.29 54.04 C21.16 38.34, 32.4 23.88, 52.56 1.96 M7.29 54.04 C18.48 40.57, 27.95 28.93, 52.56 1.96 M11.62 55.15 C28.77 33.73, 46.36 14.58, 58.2 1.57 M11.62 55.15 C22.61 42.86, 33.85 29.18, 58.2 1.57 M15.95 56.26 C31.19 37.06, 50.01 19.39, 63.19 1.93 M15.95 56.26 C35.62 35.26, 53.59 14.27, 63.19 1.93 M20.94 56.62 C39.24 36.39, 57.11 15.55, 68.83 1.53 M20.94 56.62 C29.95 46.06, 40.57 33.72, 68.83 1.53 M26.58 56.23 C39.64 39.73, 53.11 25.11, 73.82 1.89 M26.58 56.23 C36.32 45.84, 45.19 34.39, 73.82 1.89 M31.57 56.59 C44.89 42.88, 60.16 26.31, 79.46 1.5 M31.57 56.59 C49.68 36.12, 66.17 16.94, 79.46 1.5 M37.21 56.2 C45.52 44.6, 57.61 33.87, 84.45 1.86 M37.21 56.2 C49.69 42.64, 59.78 29.37, 84.45 1.86 M42.2 56.56 C53.06 41.27, 65.46 27.68, 90.09 1.46 M42.2 56.56 C52.47 44.19, 65.21 29.25, 90.09 1.46 M47.84 56.16 C62.16 35.6, 78.85 18.56, 95.08 1.82 M47.84 56.16 C63.32 36.67, 81 19.1, 95.08 1.82 M52.83 56.52 C66.52 41.14, 77.26 28.81, 100.72 1.43 M52.83 56.52 C69.69 37.15, 86.16 18.56, 100.72 1.43 M58.47 56.13 C75.93 37.06, 94.38 19.08, 105.05 2.54 M58.47 56.13 C69.03 44, 79.52 32.61, 105.05 2.54 M63.46 56.49 C80.69 36.18, 98.27 19.95, 109.38 3.66 M63.46 56.49 C79.02 39.51, 94.47 21.85, 109.38 3.66 M68.44 56.85 C79.1 45.35, 90.85 30.19, 112.4 6.28 M68.44 56.85 C78.72 44.99, 90.63 31.98, 112.4 6.28 M74.09 56.45 C83.74 45.65, 94.49 33.31, 113.45 11.17 M74.09 56.45 C84.29 44.22, 95 32.51, 113.45 11.17 M79.07 56.81 C86.37 48.96, 95.07 39.21, 113.19 17.57 M79.07 56.81 C87.73 45.76, 97.83 36.19, 113.19 17.57 M84.72 56.42 C95.76 44.02, 107.9 31.13, 113.58 23.21 M84.72 56.42 C94.14 45.9, 103.25 34.77, 113.58 23.21 M89.7 56.78 C97.33 48.39, 103.99 42.21, 113.32 29.61 M89.7 56.78 C94.61 50.43, 100.85 44.03, 113.32 29.61 M95.35 56.38 C100.22 52.32, 102.25 49.19, 113.72 35.25 M95.35 56.38 C101.47 50.03, 108.15 42.88, 113.72 35.25 M100.99 55.99 C104.75 51.23, 111.19 46.5, 113.45 41.65 M100.99 55.99 C104.92 50.49, 108.75 46.5, 113.45 41.65" stroke="#ced4da" stroke-width="0.5" fill="none"></path><path d="M13.66 0 M13.66 0 C42.32 0.46, 71.45 1.18, 98.92 0 M13.66 0 C33.49 -0.52, 52.37 -0.78, 98.92 0 M98.92 0 C109.03 -0.63, 114.53 4.53, 112.58 13.66 M98.92 0 C107.98 -1.52, 113.78 2.33, 112.58 13.66 M112.58 13.66 C110.73 25.59, 113.3 36.36, 112.58 40.98 M112.58 13.66 C112.55 24.47, 113.2 35.2, 112.58 40.98 M112.58 40.98 C112.46 48.29, 108.57 52.95, 98.92 54.63 M112.58 40.98 C113.62 47.97, 106.09 54.31, 98.92 54.63 M98.92 54.63 C79.69 55.23, 61.44 53.38, 13.66 54.63 M98.92 54.63 C78.68 53.9, 59.51 53.51, 13.66 54.63 M13.66 54.63 C6.06 55.73, 1.87 51.81, 0 40.98 M13.66 54.63 C2.84 56.22, 2.27 51.8, 0 40.98 M0 40.98 C1.5 33.93, 0.75 24.83, 0 13.66 M0 40.98 C-0.04 32.09, 0.73 21.45, 0 13.66 M0 13.66 C1.81 5.73, 2.88 0.09, 13.66 0 M0 13.66 C-1.99 4.88, 3.7 -1.35, 13.66 0" stroke="#000000" stroke-width="1" fill="none"></path></g><g transform="translate(1504.986592742915 665.852396094916) rotate(0 103 12.5)"><text x="0" y="18" font-family="Virgil, Segoe UI Emoji" font-size="20px" fill="#000000" text-anchor="start" style="white-space: pre;" direction="ltr">ControllerPathApplier</text></g><g stroke-linecap="round"><g transform="translate(1607.115338065681 759.84368724563) rotate(0 4.053056176383848 312.4179753951423)"><path d="M-0.4 1.03 C1.01 104.93, 7.04 519.23, 8.5 622.68 M1.59 0.52 C2.87 104.71, 6.66 520.63, 7.68 624.31" stroke="#000000" stroke-width="1" fill="none"></path></g></g><mask></mask><g stroke-linecap="round" transform="translate(1601.477308476114 981.639092378306) rotate(0 10.084272909495098 88.2030921324731)"><path d="M1.34 1.17 C1.34 1.17, 1.34 1.17, 1.34 1.17 M1.34 1.17 C1.34 1.17, 1.34 1.17, 1.34 1.17 M1.74 6.81 C3.32 6.03, 4.11 3.77, 6.33 1.53 M1.74 6.81 C3.67 4.76, 5.15 3.13, 6.33 1.53 M2.13 12.45 C5.15 8.02, 7.89 5.77, 11.97 1.13 M2.13 12.45 C5.31 8.8, 7.54 5.66, 11.97 1.13 M1.87 18.85 C6.38 12.62, 7.89 9.39, 17.62 0.74 M1.87 18.85 C7.53 11.43, 13.42 5.19, 17.62 0.74 M1.61 25.25 C5.73 20.53, 10.57 13.46, 19.98 4.12 M1.61 25.25 C7.38 17.73, 14.97 10.99, 19.98 4.12 M2 30.89 C11.83 22.24, 18.84 13.52, 22.34 7.5 M2 30.89 C9.81 22.3, 17.43 13.39, 22.34 7.5 M1.74 37.29 C4.65 34.05, 10.8 26.7, 22.74 13.14 M1.74 37.29 C7.57 29.87, 13.57 23.4, 22.74 13.14 M2.14 42.93 C6.1 39.62, 8.58 34.27, 22.47 19.54 M2.14 42.93 C7.78 37.25, 14.42 30.11, 22.47 19.54 M1.87 49.33 C10.9 40.19, 16.81 32.98, 22.87 25.18 M1.87 49.33 C5.49 44.17, 11 39.42, 22.87 25.18 M1.61 55.73 C8.49 49.28, 10.62 43.53, 22.61 31.58 M1.61 55.73 C6.27 48.99, 11.69 43.09, 22.61 31.58 M2.01 61.37 C4.99 57.5, 12.08 48.77, 22.35 37.97 M2.01 61.37 C8.09 52.38, 15.34 45.12, 22.35 37.97 M1.75 67.77 C7.31 57.74, 17.15 51.96, 22.74 43.62 M1.75 67.77 C7.82 60.96, 12.43 55.68, 22.74 43.62 M2.14 73.41 C10.14 64.18, 17.02 56.98, 22.48 50.02 M2.14 73.41 C9.78 65.12, 17.94 57.36, 22.48 50.02 M1.88 79.81 C6.37 73.63, 11.5 69.08, 22.87 55.66 M1.88 79.81 C9.78 70.48, 17.87 63.17, 22.87 55.66 M1.62 86.21 C8.19 79.34, 15.21 71.49, 22.61 62.06 M1.62 86.21 C6.7 80.74, 12.32 73.44, 22.61 62.06 M2.01 91.85 C6.34 86.87, 13.65 79.82, 22.35 68.45 M2.01 91.85 C7 86.27, 12.53 79.91, 22.35 68.45 M1.75 98.25 C7.12 90.96, 13.47 84.88, 22.75 74.1 M1.75 98.25 C6.4 93.21, 11.75 87.19, 22.75 74.1 M2.15 103.89 C6.56 96.66, 13.63 92.63, 22.48 80.5 M2.15 103.89 C10.02 95.05, 18.38 85.96, 22.48 80.5 M1.88 110.29 C8.38 103.59, 14.44 95.3, 22.88 86.14 M1.88 110.29 C8.33 102.96, 14.31 96.82, 22.88 86.14 M1.62 116.69 C5.41 111.02, 11.77 105.28, 22.62 92.54 M1.62 116.69 C6.52 111.76, 10.09 107.26, 22.62 92.54 M2.02 122.33 C8.81 115.96, 16.7 107.96, 22.36 98.93 M2.02 122.33 C8.98 113.99, 17.34 105.78, 22.36 98.93 M1.76 128.73 C8.37 119.11, 14.75 112.66, 22.75 104.58 M1.76 128.73 C8.36 120.44, 15.37 112.37, 22.75 104.58 M2.15 134.37 C8.15 128.3, 12.11 122.53, 22.49 110.97 M2.15 134.37 C9.34 125.96, 15.81 118.31, 22.49 110.97 M1.89 140.77 C7.76 134.41, 11.61 132.07, 22.88 116.62 M1.89 140.77 C8.98 131.12, 17.93 122.55, 22.88 116.62 M1.63 147.17 C9.25 137.55, 16.68 129.27, 22.62 123.02 M1.63 147.17 C5.64 141.66, 10.08 137.44, 22.62 123.02 M2.02 152.81 C6.71 146.01, 9.94 142.58, 22.36 129.41 M2.02 152.81 C8.48 146.9, 14.61 138.52, 22.36 129.41 M1.76 159.21 C9.8 152.01, 18.07 142.99, 22.75 135.06 M1.76 159.21 C10.49 149.72, 17.49 140.03, 22.75 135.06 M2.16 164.85 C11.71 156.9, 16.15 146.69, 22.49 141.45 M2.16 164.85 C5.88 159.06, 10.55 155.17, 22.49 141.45 M1.24 172 C11.41 162.71, 18.31 153.49, 22.89 147.1 M1.24 172 C10.73 162.32, 18.21 152.62, 22.89 147.1 M2.94 176.14 C12.41 167.15, 18.54 158.34, 22.63 153.5 M2.94 176.14 C8.44 168.99, 14.71 162.1, 22.63 153.5 M7.93 176.5 C13.39 172.08, 15.44 168.87, 22.37 159.89 M7.93 176.5 C11 173.01, 14.47 169.77, 22.37 159.89 M13.57 176.1 C18.4 172.46, 21.89 169.26, 22.76 165.54 M13.57 176.1 C15.17 173.27, 18.24 170.8, 22.76 165.54" stroke="#ced4da" stroke-width="0.5" fill="none"></path><path d="M5.04 0 M5.04 0 C9.13 0.91, 12.4 0.11, 15.13 0 M5.04 0 C8.87 0.13, 12.29 0.06, 15.13 0 M15.13 0 C20.23 0.05, 18.29 1.84, 20.17 5.04 M15.13 0 C17.23 -1.41, 19.31 1.98, 20.17 5.04 M20.17 5.04 C18.72 38.35, 19.7 73.29, 20.17 171.36 M20.17 5.04 C19.62 68.32, 19.37 132.66, 20.17 171.36 M20.17 171.36 C19.1 175.29, 20.14 177.75, 15.13 176.41 M20.17 171.36 C21.84 172.86, 18.76 175.97, 15.13 176.41 M15.13 176.41 C11.93 177.14, 8.12 177.3, 5.04 176.41 M15.13 176.41 C10.9 176.8, 7.51 176.49, 5.04 176.41 M5.04 176.41 C0.15 175.38, -0.59 175.17, 0 171.36 M5.04 176.41 C2.66 177.11, -0.52 175.74, 0 171.36 M0 171.36 C-0.37 115.9, -2.29 61.42, 0 5.04 M0 171.36 C2.14 122.73, 0.92 72.74, 0 5.04 M0 5.04 C-1.36 0.56, 0.44 -0.22, 5.04 0 M0 5.04 C-1.25 0.7, 0.37 1.96, 5.04 0" stroke="#000000" stroke-width="1" fill="none"></path></g><g stroke-linecap="round"><g transform="translate(964.9297381959702 992.6551631430871) rotate(0 314.5274836718339 -0.55082341690661)"><path d="M0.21 -0.77 C105.35 -1.08, 525.18 -2.38, 630.2 -2.54 M-1.14 1.44 C103.87 1.34, 523.99 -1.08, 629.1 -1.38" stroke="#000000" stroke-width="1" fill="none"></path></g><g transform="translate(964.9297381959702 992.6551631430871) rotate(0 314.5274836718339 -0.55082341690661)"><path d="M599.67 8.51 C606.7 6.15, 614.94 4.12, 627.17 -0.43 M600.71 9.51 C608.66 7.4, 614.88 3.92, 629.96 -1.14" stroke="#000000" stroke-width="1" fill="none"></path></g><g transform="translate(964.9297381959702 992.6551631430871) rotate(0 314.5274836718339 -0.55082341690661)"><path d="M599.58 -12.01 C606.51 -9.35, 614.77 -6.36, 627.17 -0.43 M600.62 -11.01 C608.53 -7.79, 614.78 -5.95, 629.96 -1.14" stroke="#000000" stroke-width="1" fill="none"></path></g></g><mask></mask><g transform="translate(999.2069856250405 958.4820259274) rotate(0 244 12.5)"><text x="0" y="18" font-family="Virgil, Segoe UI Emoji" font-size="20px" fill="#000000" text-anchor="start" style="white-space: pre;" direction="ltr">apply(controller, stack, foundPath, remainingPath)</text></g><g stroke-linecap="round" transform="translate(2283.7975034760298 685.1473279321856) rotate(0 56.28983675456084 27.31712666030171)"><path d="M1.77 5.51 C1.77 5.51, 1.77 5.51, 1.77 5.51 M1.77 5.51 C1.77 5.51, 1.77 5.51, 1.77 5.51 M1.51 11.91 C4.23 8.7, 5.51 7.05, 8.07 4.36 M1.51 11.91 C4.11 9.46, 6.16 6.97, 8.07 4.36 M1.9 17.55 C4.51 15.95, 8.91 8.7, 15.68 1.7 M1.9 17.55 C6.26 12.35, 12.58 6.8, 15.68 1.7 M1.64 23.95 C8.71 18.15, 14.29 9.46, 20.66 2.06 M1.64 23.95 C6.3 17.64, 12.5 12.82, 20.66 2.06 M1.38 30.35 C12.51 21.06, 19.09 9.15, 26.31 1.67 M1.38 30.35 C7.84 22.22, 14.85 15.66, 26.31 1.67 M1.77 35.99 C6.17 30.86, 15.68 22.6, 31.3 2.03 M1.77 35.99 C8.82 25.98, 18.03 17.76, 31.3 2.03 M1.51 42.39 C12.42 30.61, 25.35 15.45, 36.94 1.63 M1.51 42.39 C13.4 28.61, 24.68 15.67, 36.94 1.63 M3.22 46.52 C13.09 31.18, 25.11 18.95, 41.93 1.99 M3.22 46.52 C15.98 30.82, 29.37 17.15, 41.93 1.99 M4.27 51.41 C19.33 35.33, 33.97 18.54, 47.57 1.6 M4.27 51.41 C22.32 32.01, 38.42 12.22, 47.57 1.6 M7.29 54.04 C19.22 40.43, 30.11 28.28, 52.56 1.96 M7.29 54.04 C17.72 42.83, 28.34 28.94, 52.56 1.96 M11.62 55.15 C24.7 43.68, 35.08 29.8, 58.2 1.57 M11.62 55.15 C26 39.47, 39.42 21.71, 58.2 1.57 M15.95 56.26 C28.53 42.45, 42.01 26.3, 63.19 1.93 M15.95 56.26 C31.74 40.04, 46.78 22.67, 63.19 1.93 M20.94 56.62 C39.2 36.86, 57.81 14.32, 68.83 1.53 M20.94 56.62 C35.3 40.54, 48.23 24.02, 68.83 1.53 M26.58 56.23 C45.29 35.2, 63.56 12.77, 73.82 1.89 M26.58 56.23 C40.31 39.36, 54.33 23.42, 73.82 1.89 M31.57 56.59 C45.58 40.96, 58.89 23.73, 79.46 1.5 M31.57 56.59 C45.04 41.41, 59.57 25.57, 79.46 1.5 M37.21 56.2 C57.29 35.9, 71.91 13.52, 84.45 1.86 M37.21 56.2 C50.71 42.33, 63.17 26.88, 84.45 1.86 M42.2 56.56 C51.73 46.45, 62.53 34.83, 90.09 1.46 M42.2 56.56 C56.44 41.12, 70.8 24.98, 90.09 1.46 M47.84 56.16 C60.55 44.64, 70.38 34.09, 95.08 1.82 M47.84 56.16 C62.34 40.85, 74.82 24.15, 95.08 1.82 M52.83 56.52 C65.23 42.07, 80.42 23.82, 100.72 1.43 M52.83 56.52 C71.02 35.61, 89.6 15.25, 100.72 1.43 M58.47 56.13 C68.58 43.14, 79.49 31.31, 105.05 2.54 M58.47 56.13 C76.87 35.76, 94.47 14.11, 105.05 2.54 M63.46 56.49 C80.26 40.72, 92.82 23.51, 109.38 3.66 M63.46 56.49 C77.13 40.45, 91.21 24.76, 109.38 3.66 M68.44 56.85 C85.18 38.76, 99.55 21.17, 112.4 6.28 M68.44 56.85 C85.38 38.82, 100.75 20.14, 112.4 6.28 M74.09 56.45 C81.2 46.47, 88.8 38.63, 113.45 11.17 M74.09 56.45 C84.17 45.61, 93.68 33.05, 113.45 11.17 M79.07 56.81 C87.52 44.75, 99.9 35.52, 113.19 17.57 M79.07 56.81 C86.15 48.72, 93.11 39.73, 113.19 17.57 M84.72 56.42 C93.65 48.83, 101.2 37.62, 113.58 23.21 M84.72 56.42 C93.88 46.14, 103.03 34.3, 113.58 23.21 M89.7 56.78 C97.26 48.1, 101.41 40.48, 113.32 29.61 M89.7 56.78 C96.02 49.79, 102.72 42.32, 113.32 29.61 M95.35 56.38 C102.13 48.95, 108.56 41.33, 113.72 35.25 M95.35 56.38 C100.26 49.26, 106.69 43.12, 113.72 35.25 M100.99 55.99 C107.86 50.59, 111 45.21, 113.45 41.65 M100.99 55.99 C104.87 51.65, 107.44 48.82, 113.45 41.65" stroke="#ced4da" stroke-width="0.5" fill="none"></path><path d="M13.66 0 M13.66 0 C37.5 1.03, 59.87 -0.97, 98.92 0 M13.66 0 C46.65 -1.08, 79.41 -1.15, 98.92 0 M98.92 0 C107.58 -1.93, 111.17 6.53, 112.58 13.66 M98.92 0 C107.79 -1.04, 110.89 4.1, 112.58 13.66 M112.58 13.66 C113.67 24.99, 111.83 35.15, 112.58 40.98 M112.58 13.66 C112.3 24.58, 112.34 34.1, 112.58 40.98 M112.58 40.98 C111.18 48.92, 108.87 53.37, 98.92 54.63 M112.58 40.98 C113.16 51.46, 108.77 56.25, 98.92 54.63 M98.92 54.63 C65.8 53.49, 36.15 55.77, 13.66 54.63 M98.92 54.63 C80.2 55.92, 62.88 54.85, 13.66 54.63 M13.66 54.63 C2.94 55.37, -0.81 49.82, 0 40.98 M13.66 54.63 C3.08 52.5, 1.87 50.37, 0 40.98 M0 40.98 C1.75 34.53, -1.48 28.02, 0 13.66 M0 40.98 C-0.87 32.12, 0.04 24.27, 0 13.66 M0 13.66 C-1.22 3.35, 3.89 1.33, 13.66 0 M0 13.66 C-1.56 5.69, 5.45 -0.8, 13.66 0" stroke="#000000" stroke-width="1" fill="none"></path></g><g transform="translate(2291.9178538384126 652.8864938807003) rotate(0 48 12.5)"><text x="0" y="18" font-family="Virgil, Segoe UI Emoji" font-size="20px" fill="#000000" text-anchor="start" style="white-space: pre;" direction="ltr">Controller</text></g><g stroke-linecap="round"><g transform="translate(2338.651689810173 746.8777850314143) rotate(0 3.762220891197103 311.36863065920977)"><path d="M-1.07 0.56 C0.29 104.39, 6.99 519.13, 8.59 622.93 M0.57 -0.19 C1.76 103.28, 6.58 517.43, 7.81 621.03" stroke="#000000" stroke-width="1" fill="none"></path></g></g><mask></mask><g stroke-linecap="round" transform="translate(2331.8094230608017 998.7791191592019) rotate(0 8.277917169788225 49.66750301873037)"><path d="M1.1 0.96 C1.1 0.96, 1.1 0.96, 1.1 0.96 M1.1 0.96 C1.1 0.96, 1.1 0.96, 1.1 0.96 M2.15 5.85 C3.98 4.59, 4.71 2.96, 6.09 1.32 M2.15 5.85 C3.71 3.91, 5.39 2.22, 6.09 1.32 M1.89 12.24 C3.21 10.1, 7.06 5.17, 11.08 1.68 M1.89 12.24 C4.45 9.81, 6.66 7.67, 11.08 1.68 M2.29 17.89 C6.91 11.8, 13.12 7.01, 16.06 2.04 M2.29 17.89 C6.78 14.63, 10.02 9.46, 16.06 2.04 M2.02 24.28 C9.25 16.76, 15.13 8.47, 18.43 5.42 M2.02 24.28 C7.44 18.09, 10.7 13.68, 18.43 5.42 M1.76 30.68 C5.65 26.23, 9.62 23.29, 18.16 11.81 M1.76 30.68 C5.93 26.59, 8.14 22.99, 18.16 11.81 M2.16 36.33 C5.22 31.3, 10.7 27.78, 18.56 17.46 M2.16 36.33 C7.54 29.14, 15.23 22.78, 18.56 17.46 M1.9 42.72 C5.01 39.02, 11.23 35.5, 18.3 23.86 M1.9 42.72 C7.88 37.23, 11.25 31.7, 18.3 23.86 M2.29 48.37 C7.3 44.18, 11.67 37.92, 18.04 30.25 M2.29 48.37 C8.52 41.12, 14.66 35.07, 18.04 30.25 M2.03 54.76 C7.51 46.25, 12.55 39.18, 18.43 35.9 M2.03 54.76 C4.78 50.24, 9.57 46.04, 18.43 35.9 M1.77 61.16 C9.23 54.04, 13.11 47.98, 18.17 42.29 M1.77 61.16 C5.84 55.15, 12.21 49.95, 18.17 42.29 M2.16 66.81 C6.41 61.19, 12.25 54.48, 18.56 47.94 M2.16 66.81 C9 60.39, 14.99 52.56, 18.56 47.94 M1.9 73.2 C6.73 66.92, 13.99 60.62, 18.3 54.34 M1.9 73.2 C7.66 66.66, 14.27 58.48, 18.3 54.34 M2.3 78.85 C5.76 73.27, 10.99 69.06, 18.04 60.73 M2.3 78.85 C6.04 74.47, 10.23 70.36, 18.04 60.73 M2.03 85.24 C5.94 78.79, 10.99 72.27, 18.44 66.38 M2.03 85.24 C6.1 82, 8.96 76.21, 18.44 66.38 M1.77 91.64 C6.87 83.65, 13.72 75.8, 18.17 72.77 M1.77 91.64 C7.08 83.84, 13.02 77.09, 18.17 72.77 M2.17 97.28 C7.46 92.44, 11.67 86.67, 18.57 78.42 M2.17 97.28 C8.45 89.86, 12.41 83.9, 18.57 78.42 M4.53 100.66 C11.64 94.12, 14.05 88.96, 18.31 84.81 M4.53 100.66 C8.71 94.6, 14.45 87.74, 18.31 84.81 M9.52 101.02 C10.53 100.06, 14.08 96.49, 18.05 91.21 M9.52 101.02 C12.84 97.43, 15.35 94.07, 18.05 91.21" stroke="#ced4da" stroke-width="0.5" fill="none"></path><path d="M4.14 0 M4.14 0 C6.48 0.73, 9.07 0.11, 12.42 0 M4.14 0 C7.01 0.05, 10.71 0.28, 12.42 0 M12.42 0 C17.07 1.83, 16.05 3.23, 16.56 4.14 M12.42 0 C15.12 -1.31, 18.61 0.69, 16.56 4.14 M16.56 4.14 C17.84 34.31, 14.76 62.01, 16.56 95.2 M16.56 4.14 C17.25 30.3, 16.86 56.58, 16.56 95.2 M16.56 95.2 C17.99 98.27, 16.5 97.37, 12.42 99.34 M16.56 95.2 C17.16 97.07, 14.36 98.19, 12.42 99.34 M12.42 99.34 C9.88 98.65, 8.24 99.5, 4.14 99.34 M12.42 99.34 C10.15 99.47, 8.01 99.11, 4.14 99.34 M4.14 99.34 C3.06 99.99, -1.68 96.97, 0 95.2 M4.14 99.34 C-0.36 98.19, 0.32 95.88, 0 95.2 M0 95.2 C0.78 72.4, 1.97 47.96, 0 4.14 M0 95.2 C0.26 68.1, 0.67 40.9, 0 4.14 M0 4.14 C0.44 0.82, 1.78 1.08, 4.14 0 M0 4.14 C1.37 0.05, 0.14 -1.61, 4.14 0" stroke="#000000" stroke-width="1" fill="none"></path></g><g stroke-linecap="round"><g transform="translate(1632.3626190760012 1009.4817000508347) rotate(0 343.82553370426774 -1.5851331809448084)"><path d="M0.65 -1.1 C115.15 -1.66, 573.57 -3.71, 688.12 -4.11 M-0.47 0.94 C113.74 0.61, 572.38 -2.26, 686.94 -2.76" stroke="#000000" stroke-width="1" fill="none"></path></g><g transform="translate(1632.3626190760012 1009.4817000508347) rotate(0 343.82553370426774 -1.5851331809448084)"><path d="M656.97 6.91 C669.26 2.46, 681.23 1.03, 688.34 -2.59 M657.86 7.91 C669.98 4.17, 681.88 0.17, 686.68 -1.84" stroke="#000000" stroke-width="1" fill="none"></path></g><g transform="translate(1632.3626190760012 1009.4817000508347) rotate(0 343.82553370426774 -1.5851331809448084)"><path d="M656.86 -13.61 C669.07 -10.05, 681.08 -3.47, 688.34 -2.59 M657.75 -12.61 C669.96 -8.27, 681.9 -4.19, 686.68 -1.84" stroke="#000000" stroke-width="1" fill="none"></path></g></g><mask></mask><g transform="translate(1642.7297724009295 974.2498204842714) rotate(0 316 12.5)"><text x="0" y="18" font-family="Virgil, Segoe UI Emoji" font-size="20px" fill="#000000" text-anchor="start" style="white-space: pre;" direction="ltr">model = apply(stack, foundPath, step, cleanStep, remainingPath)</text></g><g stroke-linecap="round" transform="translate(1618.3366287133774 1043.0551875283336) rotate(0 8.277917169788338 49.66750301873037)"><path d="M1.1 0.96 C1.1 0.96, 1.1 0.96, 1.1 0.96 M1.1 0.96 C1.1 0.96, 1.1 0.96, 1.1 0.96 M2.15 5.85 C3.16 4.86, 5.14 2.78, 6.09 1.32 M2.15 5.85 C3.06 4.78, 4.38 3.29, 6.09 1.32 M1.89 12.24 C3.47 8.19, 8.37 5.68, 11.08 1.68 M1.89 12.24 C5.06 8.24, 8.48 5.1, 11.08 1.68 M2.29 17.89 C7.18 12.28, 9.8 6.26, 16.06 2.04 M2.29 17.89 C7.48 12.44, 11.03 7.25, 16.06 2.04 M2.02 24.28 C6.22 17.67, 9.95 15.06, 18.43 5.42 M2.02 24.28 C7.27 17.99, 14.57 10.35, 18.43 5.42 M1.76 30.68 C9.28 22.49, 12.71 15.16, 18.16 11.81 M1.76 30.68 C5.47 27.07, 10.28 21.25, 18.16 11.81 M2.16 36.33 C9.92 29.86, 14.77 20.66, 18.56 17.46 M2.16 36.33 C8.43 29.64, 12.32 23.55, 18.56 17.46 M1.9 42.72 C5.66 35.37, 10.26 30.07, 18.3 23.86 M1.9 42.72 C6.66 37.48, 10.75 32.16, 18.3 23.86 M2.29 48.37 C8.45 42.13, 16.26 34.35, 18.04 30.25 M2.29 48.37 C5.68 44.12, 9.92 40.1, 18.04 30.25 M2.03 54.76 C8.79 48.37, 14.82 40.19, 18.43 35.9 M2.03 54.76 C6.2 48.4, 11.48 42.7, 18.43 35.9 M1.77 61.16 C7.54 53.99, 13.85 46.06, 18.17 42.29 M1.77 61.16 C7.7 53.74, 12.98 46.43, 18.17 42.29 M2.16 66.81 C4.17 63.45, 9.03 55.84, 18.56 47.94 M2.16 66.81 C6.99 59.19, 14.55 52.84, 18.56 47.94 M1.9 73.2 C5.79 69.31, 8.67 65.96, 18.3 54.34 M1.9 73.2 C7.45 65.99, 13.16 60.07, 18.3 54.34 M2.3 78.85 C8.99 74.82, 11.44 69.29, 18.04 60.73 M2.3 78.85 C4.91 75.54, 9.87 70.46, 18.04 60.73 M2.03 85.24 C6.32 80.06, 11.61 74.09, 18.44 66.38 M2.03 85.24 C4.75 81.25, 8.67 76.69, 18.44 66.38 M1.77 91.64 C5.47 84.74, 12.58 79.56, 18.17 72.77 M1.77 91.64 C5.17 87.82, 7.88 83.57, 18.17 72.77 M2.17 97.28 C5.06 90.48, 13.19 84.94, 18.57 78.42 M2.17 97.28 C6.81 90.86, 12.1 85.11, 18.57 78.42 M4.53 100.66 C9.74 96.09, 13.54 93.2, 18.31 84.81 M4.53 100.66 C8.46 95.3, 14.5 90.21, 18.31 84.81 M9.52 101.02 C12.57 96.19, 16.27 93.75, 18.05 91.21 M9.52 101.02 C13.31 97.13, 16.34 93.4, 18.05 91.21" stroke="#ced4da" stroke-width="0.5" fill="none"></path><path d="M4.14 0 M4.14 0 C6.58 -0.18, 8.84 -0.61, 12.42 0 M4.14 0 C6.04 -0.31, 7.94 -0.29, 12.42 0 M12.42 0 C14.82 -1.36, 15.25 0.38, 16.56 4.14 M12.42 0 C17.04 2.1, 18.1 2.25, 16.56 4.14 M16.56 4.14 C18.35 32.88, 17.67 63.14, 16.56 95.2 M16.56 4.14 C16.92 23.1, 16.75 40.97, 16.56 95.2 M16.56 95.2 C14.85 99.2, 14.39 97.94, 12.42 99.34 M16.56 95.2 C14.75 97.49, 13.55 100.31, 12.42 99.34 M12.42 99.34 C9.28 99.58, 6.08 99.46, 4.14 99.34 M12.42 99.34 C8.81 99.32, 5.78 99.48, 4.14 99.34 M4.14 99.34 C1.53 99.07, -0.66 99.09, 0 95.2 M4.14 99.34 C0.61 100.29, -1.91 96.3, 0 95.2 M0 95.2 C-1.41 71.98, -1.4 46.5, 0 4.14 M0 95.2 C-0.01 73.84, -0.44 52.85, 0 4.14 M0 4.14 C-1.23 -0.17, 1.88 -1.74, 4.14 0 M0 4.14 C-2.04 3.57, 0.93 0.4, 4.14 0" stroke="#000000" stroke-width="1" fill="none"></path></g><g transform="translate(1688.0306410331946 1025.9193068764498) rotate(0 218 75)"><text x="0" y="18" font-family="Virgil, Segoe UI Emoji" font-size="20px" fill="#000000" text-anchor="start" style="white-space: pre;" direction="ltr">view = vieMapper.toView(model step)</text><text x="0" y="43" font-family="Virgil, Segoe UI Emoji" font-size="20px" fill="#000000" text-anchor="start" style="white-space: pre;" direction="ltr">registerViewInStack(foundPath + step, view)</text><text x="0" y="68" font-family="Virgil, Segoe UI Emoji" font-size="20px" fill="#000000" text-anchor="start" style="white-space: pre;" direction="ltr">if (!remainingPath.isEmpty()) {</text><text x="0" y="93" font-family="Virgil, Segoe UI Emoji" font-size="20px" fill="#000000" text-anchor="start" style="white-space: pre;" direction="ltr">  controller = view.getController()</text><text x="0" y="118" font-family="Virgil, Segoe UI Emoji" font-size="20px" fill="#000000" text-anchor="start" style="white-space: pre;" direction="ltr">  apply()</text><text x="0" y="143" font-family="Virgil, Segoe UI Emoji" font-size="20px" fill="#000000" text-anchor="start" style="white-space: pre;" direction="ltr">}</text></g><g stroke-linecap="round"><g transform="translate(1637.4526803214058 1152.9345485372871) rotate(0 20.481330419055098 -56.98890083073786)"><path d="M-1.07 0.67 C5.07 1.19, 31.71 22.39, 38.01 2.45 C44.31 -17.49, 42.69 -100.53, 36.74 -118.98 C30.79 -137.43, 8.42 -110.4, 2.32 -108.25 M0.58 -0.03 C6.4 0.66, 30.83 22.96, 36.78 3.38 C42.73 -16.21, 42.51 -99.02, 36.29 -117.54 C30.08 -136.05, 5.24 -109.16, -0.5 -107.7" stroke="#000000" stroke-width="1" fill="none"></path></g><g transform="translate(1637.4526803214058 1152.9345485372871) rotate(0 20.481330419055098 -56.98890083073786)"><path d="M11.39 -123.45 C4.14 -115.83, 1.96 -109.07, -2.15 -109.26 M10.81 -123.52 C6.1 -116.71, 1.41 -110.37, 0.07 -106.88" stroke="#000000" stroke-width="1" fill="none"></path></g><g transform="translate(1637.4526803214058 1152.9345485372871) rotate(0 20.481330419055098 -56.98890083073786)"><path d="M18.45 -112.98 C8.45 -109.6, 3.44 -107.03, -2.15 -109.26 M17.87 -113.05 C10.45 -110.38, 3 -108.15, 0.07 -106.88" stroke="#000000" stroke-width="1" fill="none"></path></g></g><mask></mask></svg>
