<svg xmlns="http://www.w3.org/2000/svg" xmlns:xlink="http://www.w3.org/1999/xlink" viewBox="0 0 500 500"><defs><clipPath id="a"><path d="M244.44645,0s-.05216,20.8097,54.34562,53.85882C404.40927,118.02607,404.05329,176.85289,404.05329,189.198c0,52.44076-54.58,86.34059-79.90468,58.90358,0,0,24.84905-18.44184,24.84905-46.79927,0,0-18.22265,12.0105-27.74812,14.08129,0,0,12.42453-21.95021,6.6264-60.46631,0,0-9.93949,19.46517-41.82919,35.203,0,0,12.42453-27.74812.82827-54.25394,0,0,2.48482,33.13222-72.89083,68.335-75.37565,35.203-52.18314,70.40581-52.18314,70.40581s15.02561-15.95594,40.53522-4.74981c34.51124,15.16039,20.56455,75.99839-34.9319,75.99839-54.03088,0-89.49533-58.759-89.49533-104.64187,0-18.971,2.0565-53.87335,36.33151-92.26136,27.26162-30.533,60.8778-46.64239,68.093-80.40568C144.97381,103.16463,77.61422,125.7563,37.55622,184.99873c-35.9809,53.21274-24.29908,123.59733-17.82186,145.248C49.10941,428.4354,140.13964,500,247.88453,500c131.50293,0,239.47789-105.23319,239.47789-236.73589C487.36243,64.18214,298.0982,43.05754,244.44645,0ZM212.586,243.70877c-4.00745.93248-7.84423-.74431-14.24763-2.69173-5.9871-1.82081-8.10672-1.47222-8.10672-1.47222a101.45309,101.45309,0,0,1,12.67043-7.26709c6.36062-2.92869,11.7938-3.08122,14.321,2.746C218.88438,238.85439,215.87109,242.94422,212.586,243.70877Z" fill="none"/></clipPath><linearGradient id="b" x1="367.97931" y1="468.09967" x2="134.40299" y2="63.53362" gradientUnits="userSpaceOnUse"><stop offset="0" stop-color="#1973b4"/><stop offset="1" stop-color="#54b9de"/></linearGradient></defs><title>-</title><g style="isolation:isolate"><g clip-path="url(#a)"><path d="M244.44645,0s-.05216,20.8097,54.34562,53.85882C404.40927,118.02607,404.05329,176.85289,404.05329,189.198c0,52.44076-54.58,86.34059-79.90468,58.90358,0,0,24.84905-18.44184,24.84905-46.79927,0,0-18.22265,12.0105-27.74812,14.08129,0,0,12.42453-21.95021,6.6264-60.46631,0,0-9.93949,19.46517-41.82919,35.203,0,0,12.42453-27.74812.82827-54.25394,0,0,2.48482,33.13222-72.89083,68.335-75.37565,35.203-52.18314,70.40581-52.18314,70.40581s15.02561-15.95594,40.53522-4.74981c34.51124,15.16039,20.56455,75.99839-34.9319,75.99839-54.03088,0-89.49533-58.759-89.49533-104.64187,0-18.971,2.0565-53.87335,36.33151-92.26136,27.26162-30.533,60.8778-46.64239,68.093-80.40568C144.97381,103.16463,77.61422,125.7563,37.55622,184.99873c-35.9809,53.21274-24.29908,123.59733-17.82186,145.248C49.10941,428.4354,140.13964,500,247.88453,500c131.50293,0,239.47789-105.23319,239.47789-236.73589C487.36243,64.18214,298.0982,43.05754,244.44645,0Z" fill="#1973b4"/><path d="M292.045,311.85258s5.97433,94.58207-106.0597,108.52991C112.82371,429.49085,55.24149,382.86961,30.25873,323.487c-17.39213-41.34007-18.98507-88.86487.96363-128.07718,0,0-72.65516,69.24992-69.31444,172.89164C-34.62315,475.92111,50.53247,617.35387,370.00046,576.422,476.21137,562.81376,515.167,413.98811,516.74162,325.622c1.95787-109.87482-49.45348-161.95376-49.45348-161.95376s26.83132,77.63252-35.01043,139.47427C397.8187,337.60149,339.18549,349.52569,292.045,311.85258Z" fill="#54b9de" opacity="0.4" style="mix-blend-mode:lighten"/><path d="M464.50511,366.72624S357.692,399.3183,292.045,311.85258c0,0,28.71923,111.32256-93.65775,183.61644,0,0,42.40079,125.71065,182.45731,63.30266C425.78417,538.747,459.63928,441.9746,464.50511,366.72624Z" fill="#54b9de" opacity="0.6" style="mix-blend-mode:lighten"/><path d="M278.54436,527.10106S345.3703,441.90187,292.045,311.85258c0,0,47.88146,97.8219,133.70012,132.3936C425.74514,444.24618,374.42636,530.15806,278.54436,527.10106Z" fill="#54b9de" opacity="0.8" style="mix-blend-mode:lighten"/><path d="M230.77695,248.69487c41.92945-21.61312,55.37011-58.64231,55.37011-58.64231s12.42536-27.76338.82052-54.28881c0,0,2.48666,33.15673-72.94476,68.38557-75.43142,35.22905-52.22175,70.45789-52.22175,70.45789,3.9498-3.52143,7.70767-5.89461,15.15485-7.89808C189.36787,263.37,208.90424,259.96946,230.77695,248.69487Z" fill="#54b9de" opacity="0.6" style="mix-blend-mode:overlay"/><path d="M232.93826,264.04019c32.4056,0,69.893-15.06254,88.44326-48.69519,2.8987-5.2555,5.48107-13.78831,6.76491-21.81654,2.04629-12.79612,2.25779-22.31675-.10807-39.606,0,0-6.14261,17.20453-41.89131,36.13014-12.97594,6.86955-29.61172,13.7393-51.61068,20.41562-85.2385,25.86849-72.73531,64.139-72.73531,64.139C175.23361,265.71628,175.31466,264.04019,232.93826,264.04019Z" fill="#54b9de" opacity="0.4" style="mix-blend-mode:overlay"/><path d="M232.93826,264.04019c29.79126,0,70.29365,1.67526,91.33048-15.95819,12.90117-10.814,24.68032-25.10567,24.90217-46.8847,0,0-17.64743,11.64788-27.793,14.15233-14.03422,3.46436-39.287,8.77756-62.391,7.4661-78.40541-4.45055-97.1858,51.79148-97.1858,51.79148C172.613,264.6086,185.77,264.04019,232.93826,264.04019Z" fill="#54b9de" opacity="0.2" style="mix-blend-mode:overlay"/><path d="M244.44645,0s-.05216,20.8097,54.34562,53.85882C404.40927,118.02607,404.05329,176.85289,404.05329,189.198c0,52.44076-54.58,86.34059-79.90468,58.90358,0,0,24.84905-18.44184,24.84905-46.79927,0,0-18.22265,12.0105-27.74812,14.08129,0,0,12.42453-21.95021,6.6264-60.46631,0,0-9.93949,19.46517-41.82919,35.203,0,0,12.42453-27.74812.82827-54.25394,0,0,2.48482,33.13222-72.89083,68.335-75.37565,35.203-52.18314,70.40581-52.18314,70.40581s15.02561-15.95594,40.53522-4.74981c34.51124,15.16039,20.56455,75.99839-34.9319,75.99839-54.03088,0-89.49533-58.759-89.49533-104.64187,0-18.971,2.0565-53.87335,36.33151-92.26136,27.26162-30.533,60.8778-46.64239,68.093-80.40568C144.97381,103.16463,77.61422,125.7563,37.55622,184.99873c-35.9809,53.21274-24.29908,123.59733-17.82186,145.248C49.10941,428.4354,140.13964,500,247.88453,500c131.50293,0,239.47789-105.23319,239.47789-236.73589C487.36243,64.18214,298.0982,43.05754,244.44645,0Z" fill="url(#b)" style="mix-blend-mode:overlay"/></g></g></svg>