<svg id="wefox__logo" width="100" height="28" viewBox="0 0 233 63" fill="none" xmlns="http://www.w3.org/2000/svg">
    <path d="M90.6146 17.8191C78.2793 17.8191 69.3393 27.3 69.3393 39.9926C69.3393 52.6853 78.84 62.2279 91.3933 62.2279C98.1528 62.2279 104.694 59.5411 108.993 54.5073L102.358 47.6823C99.3988 51.2029 95.6608 53.0867 91.4245 53.0867C85.3814 53.0867 80.6778 48.9485 79.6499 42.8956H111.672V40.0235C111.111 26.497 102.825 17.8191 90.6146 17.8191ZM79.8991 35.0206C81.4565 30.2338 85.6929 26.9912 90.5523 26.9912C96.0658 26.9912 99.6791 29.8014 100.832 35.0206H79.8991Z" fill="#501E96"/>
    <path d="M47.8771 48.8868L40.5881 25.4779C38.9683 20.2897 37.1305 18.9926 33.6417 18.9926C30.153 18.9926 28.3151 20.2897 26.6953 25.4779L19.4063 48.8868L11.8058 18.3441H0.903351L12.1484 56.7C13.2698 60.4677 16.0421 62.228 19.344 62.228C22.8016 62.228 25.387 60.0044 26.4773 56.6691L33.6106 34.65L40.7439 56.6691C41.8341 60.0044 44.4195 62.228 47.8771 62.228C51.179 62.228 53.9825 60.4677 55.0727 56.7L66.3178 18.3441H55.4154L47.8771 48.8868Z" fill="#501E96"/>
    <path d="M138.336 9.6662C140.018 9.6662 141.98 10.5309 143.569 11.6118L147.837 3.64414C144.41 1.54414 140.672 0.463257 136.934 0.463257C129.614 0.463257 121.858 5.74414 121.858 15.5338V18.3441H114.226V27.2691H121.858V61.7647H131.95V27.2383H141.856V18.3441H131.95V16.7691C131.95 10.4691 136.436 9.6662 138.336 9.6662Z" fill="#501E96"/>
    <path d="M219.855 38.8809C224.153 36.3176 230.57 27.4235 231.598 18.3132H221.132C221.007 25.2618 214.933 31.8706 211.569 33.9706C208.205 31.8706 202.162 25.2926 202.006 18.3132H191.54C192.568 27.3926 198.984 36.3176 203.283 38.8809C198.984 41.2897 191.384 51.6353 190.73 61.7338H200.916C201.663 53.9515 208.672 45.4279 211.6 43.8221C214.528 45.4279 221.537 53.9515 222.284 61.7338H232.47C231.754 51.6353 224.153 41.2897 219.855 38.8809Z" fill="#501E96"/>
    <path d="M166.277 17.8191C153.817 17.8191 144.036 27.5779 144.036 40.0235C144.036 52.4691 153.786 62.2279 166.277 62.2279C178.737 62.2279 188.518 52.4691 188.518 40.0235C188.518 27.5779 178.737 17.8191 166.277 17.8191ZM166.277 53.0559C159.144 53.0559 153.942 47.5897 153.942 40.0235C153.942 32.4882 159.113 26.9912 166.277 26.9912C173.379 26.9912 178.519 32.4573 178.519 40.0235C178.519 47.5588 173.379 53.0559 166.277 53.0559Z" fill="#501E96"/>
</svg>
