<svg xmlns="http://www.w3.org/2000/svg" width="1440" height="24" viewBox="0 0 1440 24" preserveAspectRatio="none">
<rect width="1440" height="24" fill="#464c68"/>
<path d="M-20 24 L28 4 L77 24 Z" fill="#efc971"/>
<path d="M1420 24 L1468 4 L1517 24 Z" fill="#efc971"/>
<path d="M48 0 Q66 38 84 0 Z" fill="#dedfe4"/>
<rect x="62" y="0" width="106" height="24" fill="#efc971"/>
<path d="M126 24 L160 5 L195 24 Z" fill="#decf8c"/>
<path d="M157 24 L157 8 C182 -6 207 18 241 6 L241 24 Z" fill="#efc971"/>
<circle cx="213" cy="20.6" r="0.9" fill="#1e202b" opacity="0.5"/>
<circle cx="182" cy="14.1" r="0.9" fill="#1e202b" opacity="0.5"/>
<circle cx="232" cy="5.5" r="0.9" fill="#1e202b" opacity="0.5"/>
<circle cx="161" cy="17.2" r="0.9" fill="#1e202b" opacity="0.5"/>
<circle cx="227" cy="17.1" r="0.9" fill="#1e202b" opacity="0.5"/>
<circle cx="195" cy="20.3" r="0.9" fill="#1e202b" opacity="0.5"/>
<circle cx="211" cy="19.7" r="0.9" fill="#1e202b" opacity="0.5"/>
<circle cx="217" cy="19.5" r="0.9" fill="#1e202b" opacity="0.5"/>
<circle cx="164" cy="4.2" r="0.9" fill="#1e202b" opacity="0.5"/>
<path d="M219 24 L219 9 C244 -5 268 19 301 7 L301 24 Z" fill="#373b51"/>
<circle cx="279" cy="9.8" r="0.9" fill="#1e202b" opacity="0.5"/>
<circle cx="242" cy="9.8" r="0.9" fill="#1e202b" opacity="0.5"/>
<circle cx="265" cy="11.0" r="0.9" fill="#1e202b" opacity="0.5"/>
<circle cx="237" cy="15.9" r="0.9" fill="#1e202b" opacity="0.5"/>
<circle cx="284" cy="5.9" r="0.9" fill="#1e202b" opacity="0.5"/>
<circle cx="245" cy="16.3" r="0.9" fill="#1e202b" opacity="0.5"/>
<circle cx="244" cy="9.4" r="0.9" fill="#1e202b" opacity="0.5"/>
<circle cx="278" cy="16.9" r="0.9" fill="#1e202b" opacity="0.5"/>
<path d="M252 0 Q273 38 294 0 Z" fill="#5c6384"/>
<path d="M280 24 L280 11 C305 -3 330 21 364 9 L364 24 Z" fill="#efc971"/>
<path d="M331 24 L331 9 C354 -5 377 19 407 7 L407 24 Z" fill="#afb2c2"/>
<circle cx="341" cy="9.1" r="0.9" fill="#1e202b" opacity="0.5"/>
<circle cx="341" cy="18.0" r="0.9" fill="#1e202b" opacity="0.5"/>
<circle cx="370" cy="18.1" r="0.9" fill="#1e202b" opacity="0.5"/>
<circle cx="337" cy="8.9" r="0.9" fill="#1e202b" opacity="0.5"/>
<circle cx="368" cy="15.3" r="0.9" fill="#1e202b" opacity="0.5"/>
<circle cx="359" cy="12.9" r="0.9" fill="#1e202b" opacity="0.5"/>
<circle cx="388" cy="11.3" r="0.9" fill="#1e202b" opacity="0.5"/>
<path d="M372 24 L372 8 C389 -6 407 18 430 6 L430 24 Z" fill="#373b51"/>
<path d="M394 0 Q430 38 466 0 Z" fill="#8187a3"/>
<path d="M444 24 L444 7 C469 -7 494 17 528 5 L528 24 Z" fill="#decf8c"/>
<path d="M488 24 L488 6 C502 -8 516 16 534 4 L534 24 Z" fill="#373b51"/>
<circle cx="507" cy="10.6" r="0.9" fill="#1e202b" opacity="0.5"/>
<circle cx="508" cy="17.0" r="0.9" fill="#1e202b" opacity="0.5"/>
<circle cx="511" cy="9.2" r="0.9" fill="#1e202b" opacity="0.5"/>
<circle cx="510" cy="7.1" r="0.9" fill="#1e202b" opacity="0.5"/>
<circle cx="497" cy="9.9" r="0.9" fill="#1e202b" opacity="0.5"/>
<circle cx="522" cy="16.4" r="0.9" fill="#1e202b" opacity="0.5"/>
<circle cx="505" cy="10.3" r="0.9" fill="#1e202b" opacity="0.5"/>
<circle cx="514" cy="20.0" r="0.9" fill="#1e202b" opacity="0.5"/>
<path d="M513 24 L556 7 L599 24 Z" fill="#8187a3"/>
<path d="M555 24 L555 11 C585 -3 616 21 656 9 L656 24 Z" fill="#decf8c"/>
<circle cx="650" cy="4.8" r="0.9" fill="#1e202b" opacity="0.5"/>
<circle cx="624" cy="18.6" r="0.9" fill="#1e202b" opacity="0.5"/>
<circle cx="649" cy="6.5" r="0.9" fill="#1e202b" opacity="0.5"/>
<circle cx="591" cy="9.2" r="0.9" fill="#1e202b" opacity="0.5"/>
<circle cx="616" cy="8.7" r="0.9" fill="#1e202b" opacity="0.5"/>
<circle cx="599" cy="21.0" r="0.9" fill="#1e202b" opacity="0.5"/>
<circle cx="641" cy="20.1" r="0.9" fill="#1e202b" opacity="0.5"/>
<circle cx="562" cy="19.5" r="0.9" fill="#1e202b" opacity="0.5"/>
<circle cx="615" cy="4.1" r="0.9" fill="#1e202b" opacity="0.5"/>
<circle cx="573" cy="13.3" r="0.9" fill="#1e202b" opacity="0.5"/>
<path d="M611 24 L611 6 C630 -8 649 16 675 4 L675 24 Z" fill="#373b51"/>
<circle cx="658" cy="16.5" r="0.9" fill="#1e202b" opacity="0.5"/>
<circle cx="658" cy="20.9" r="0.9" fill="#1e202b" opacity="0.5"/>
<circle cx="659" cy="7.7" r="0.9" fill="#1e202b" opacity="0.5"/>
<circle cx="627" cy="4.5" r="0.9" fill="#1e202b" opacity="0.5"/>
<circle cx="624" cy="20.1" r="0.9" fill="#1e202b" opacity="0.5"/>
<circle cx="668" cy="7.4" r="0.9" fill="#1e202b" opacity="0.5"/>
<circle cx="662" cy="11.9" r="0.9" fill="#1e202b" opacity="0.5"/>
<path d="M639 24 L680 1 L721 24 Z" fill="#5c6384"/>
<rect x="676" y="0" width="80" height="24" fill="#8187a3"/>
<rect x="720" y="12" width="8" height="1.4" fill="#1e202b" opacity="0.55"/>
<rect x="691" y="16" width="4" height="1.4" fill="#1e202b" opacity="0.55"/>
<rect x="687" y="6" width="6" height="1.4" fill="#1e202b" opacity="0.55"/>
<rect x="689" y="6" width="6" height="1.4" fill="#1e202b" opacity="0.55"/>
<rect x="690" y="18" width="4" height="1.4" fill="#1e202b" opacity="0.55"/>
<rect x="729" y="7" width="4" height="1.4" fill="#1e202b" opacity="0.55"/>
<rect x="682" y="14" width="9" height="1.4" fill="#1e202b" opacity="0.55"/>
<rect x="712" y="19" width="6" height="1.4" fill="#1e202b" opacity="0.55"/>
<rect x="730" y="15" width="7" height="1.4" fill="#1e202b" opacity="0.55"/>
<path d="M721 24 L754 2 L788 24 Z" fill="#efc971"/>
<path d="M763 0 Q790 38 817 0 Z" fill="#5c6384"/>
<rect x="791" y="0" width="65" height="24" fill="#8187a3"/>
<path d="M824 24 L866 7 L907 24 Z" fill="#8187a3"/>
<rect x="882" y="0" width="39" height="24" fill="#decf8c"/>
<rect x="904" y="6" width="5" height="1.4" fill="#1e202b" opacity="0.55"/>
<rect x="909" y="18" width="4" height="1.4" fill="#1e202b" opacity="0.55"/>
<rect x="906" y="13" width="10" height="1.4" fill="#1e202b" opacity="0.55"/>
<rect x="885" y="15" width="5" height="1.4" fill="#1e202b" opacity="0.55"/>
<rect x="910" y="19" width="9" height="1.4" fill="#1e202b" opacity="0.55"/>
<rect x="897" y="13" width="4" height="1.4" fill="#1e202b" opacity="0.55"/>
<rect x="893" y="13" width="5" height="1.4" fill="#1e202b" opacity="0.55"/>
<path d="M906 24 L906 10 C923 -4 940 20 962 8 L962 24 Z" fill="#8187a3"/>
<path d="M944 0 Q972 38 1000 0 Z" fill="#373b51"/>
<path d="M966 24 L966 14 C988 0 1011 24 1041 12 L1041 24 Z" fill="#8187a3"/>
<circle cx="1008" cy="7.3" r="0.9" fill="#1e202b" opacity="0.5"/>
<circle cx="1018" cy="15.3" r="0.9" fill="#1e202b" opacity="0.5"/>
<circle cx="992" cy="11.0" r="0.9" fill="#1e202b" opacity="0.5"/>
<circle cx="1007" cy="7.0" r="0.9" fill="#1e202b" opacity="0.5"/>
<circle cx="974" cy="17.8" r="0.9" fill="#1e202b" opacity="0.5"/>
<circle cx="996" cy="4.5" r="0.9" fill="#1e202b" opacity="0.5"/>
<circle cx="1017" cy="18.8" r="0.9" fill="#1e202b" opacity="0.5"/>
<circle cx="988" cy="14.5" r="0.9" fill="#1e202b" opacity="0.5"/>
<circle cx="996" cy="10.2" r="0.9" fill="#1e202b" opacity="0.5"/>
<circle cx="1019" cy="11.1" r="0.9" fill="#1e202b" opacity="0.5"/>
<circle cx="1023" cy="9.0" r="0.9" fill="#1e202b" opacity="0.5"/>
<path d="M992 24 L1016 4 L1040 24 Z" fill="#efc971"/>
<path d="M1012 0 Q1042 38 1073 0 Z" fill="#5c6384"/>
<path d="M1041 24 L1041 9 C1068 -5 1095 19 1131 7 L1131 24 Z" fill="#373b51"/>
<circle cx="1059" cy="13.8" r="0.9" fill="#1e202b" opacity="0.5"/>
<circle cx="1100" cy="16.2" r="0.9" fill="#1e202b" opacity="0.5"/>
<circle cx="1080" cy="16.0" r="0.9" fill="#1e202b" opacity="0.5"/>
<circle cx="1085" cy="18.0" r="0.9" fill="#1e202b" opacity="0.5"/>
<circle cx="1096" cy="19.2" r="0.9" fill="#1e202b" opacity="0.5"/>
<circle cx="1049" cy="7.7" r="0.9" fill="#1e202b" opacity="0.5"/>
<circle cx="1091" cy="6.5" r="0.9" fill="#1e202b" opacity="0.5"/>
<path d="M1106 0 Q1132 38 1159 0 Z" fill="#efc971"/>
<path d="M1127 24 L1127 7 C1139 -7 1151 17 1167 5 L1167 24 Z" fill="#efc971"/>
<path d="M1149 0 Q1189 38 1229 0 Z" fill="#afb2c2"/>
<path d="M1185 24 L1185 10 C1202 -4 1218 20 1240 8 L1240 24 Z" fill="#373b51"/>
<circle cx="1205" cy="8.8" r="0.9" fill="#1e202b" opacity="0.5"/>
<circle cx="1211" cy="7.4" r="0.9" fill="#1e202b" opacity="0.5"/>
<circle cx="1235" cy="4.5" r="0.9" fill="#1e202b" opacity="0.5"/>
<circle cx="1194" cy="20.4" r="0.9" fill="#1e202b" opacity="0.5"/>
<circle cx="1209" cy="13.5" r="0.9" fill="#1e202b" opacity="0.5"/>
<circle cx="1192" cy="15.7" r="0.9" fill="#1e202b" opacity="0.5"/>
<circle cx="1201" cy="9.5" r="0.9" fill="#1e202b" opacity="0.5"/>
<path d="M1213 0 Q1241 38 1269 0 Z" fill="#afb2c2"/>
<path d="M1240 0 Q1284 38 1329 0 Z" fill="#afb2c2"/>
<path d="M1288 24 L1288 10 C1311 -4 1334 20 1365 8 L1365 24 Z" fill="#dedfe4"/>
<circle cx="1341" cy="20.8" r="0.9" fill="#1e202b" opacity="0.5"/>
<circle cx="1320" cy="19.3" r="0.9" fill="#1e202b" opacity="0.5"/>
<circle cx="1334" cy="7.7" r="0.9" fill="#1e202b" opacity="0.5"/>
<circle cx="1347" cy="7.6" r="0.9" fill="#1e202b" opacity="0.5"/>
<circle cx="1297" cy="14.1" r="0.9" fill="#1e202b" opacity="0.5"/>
<circle cx="1361" cy="8.5" r="0.9" fill="#1e202b" opacity="0.5"/>
<circle cx="1295" cy="18.4" r="0.9" fill="#1e202b" opacity="0.5"/>
<circle cx="1353" cy="14.8" r="0.9" fill="#1e202b" opacity="0.5"/>
<circle cx="1341" cy="16.3" r="0.9" fill="#1e202b" opacity="0.5"/>
<path d="M1315 24 L1315 10 C1348 -4 1380 20 1424 8 L1424 24 Z" fill="#8187a3"/>
<path d="M-60 0 Q-6 38 49 0 Z" fill="#efc971"/>
<path d="M1380 0 Q1434 38 1489 0 Z" fill="#efc971"/>
</svg>
