<svg xmlns="http://www.w3.org/2000/svg" viewBox="0 0 119 25"><defs><style>.cls-1{fill:none;}.cls-2{fill:#fff;}</style></defs><title>Asset 5</title><g id="Layer_2" data-name="Layer 2"><g id="logo"><rect class="cls-1" width="119" height="25"/><path class="cls-2" d="M51.72,14.79h6.59L54.83,9.17l-6.4,10.15H45.51L53.3,7.14a1.85,1.85,0,0,1,3,0l7.81,12.21H61.22l-1.37-2.27H53.17l-1.45-2.26M82,17.05V6.47H79.49V18.09a1.18,1.18,0,0,0,.36.85,1.25,1.25,0,0,0,.91.38H92l1.46-2.27H82M41.08,15.16a4.35,4.35,0,0,0,0-8.69H30.27V19.32h2.47V8.74h8.18a2.08,2.08,0,1,1,0,4.16H34l7.38,6.43h3.59l-5-4.16h1.12m-26,4.16h7.47a6.43,6.43,0,0,0,0-12.85H15.06a6.43,6.43,0,1,0,0,12.85m7.3-2.26H15.23a4.16,4.16,0,0,1,0-8.32h7.13a4.16,4.16,0,1,1,0,8.32m46.93,2.26h7.63l1.44-2.26h-8.9a4.16,4.16,0,1,1,0-8.32h7.25l1.46-2.27H69.29a6.43,6.43,0,1,0,0,12.85m30.23-2.26a4.17,4.17,0,0,1-4-3h10.56l1.46-2.26h-12a4.16,4.16,0,0,1,4-3h7.25l1.45-2.27H99.35a6.43,6.43,0,0,0,0,12.85H107l1.45-2.26H99.52"/></g></g></svg>
