<svg class="lds-spinner" width="141px"  height="141px"  xmlns="http://www.w3.org/2000/svg" xmlns:xlink="http://www.w3.org/1999/xlink" viewBox="0 0 100 100" preserveAspectRatio="xMidYMid" style="background: none;"><g transform="rotate(0 50 50)">
  <rect x="47.5" y="13" rx="3.8000000000000003" ry="1.04" width="5" height="12" fill="#6b7486">
    <animate attributeName="opacity" values="1;0" keyTimes="0;1" dur="1s" begin="-0.8571428571428571s" repeatCount="indefinite"></animate>
  </rect>
</g><g transform="rotate(51.42857142857143 50 50)">
  <rect x="47.5" y="13" rx="3.8000000000000003" ry="1.04" width="5" height="12" fill="#6b7486">
    <animate attributeName="opacity" values="1;0" keyTimes="0;1" dur="1s" begin="-0.7142857142857143s" repeatCount="indefinite"></animate>
  </rect>
</g><g transform="rotate(102.85714285714286 50 50)">
  <rect x="47.5" y="13" rx="3.8000000000000003" ry="1.04" width="5" height="12" fill="#6b7486">
    <animate attributeName="opacity" values="1;0" keyTimes="0;1" dur="1s" begin="-0.5714285714285714s" repeatCount="indefinite"></animate>
  </rect>
</g><g transform="rotate(154.28571428571428 50 50)">
  <rect x="47.5" y="13" rx="3.8000000000000003" ry="1.04" width="5" height="12" fill="#6b7486">
    <animate attributeName="opacity" values="1;0" keyTimes="0;1" dur="1s" begin="-0.42857142857142855s" repeatCount="indefinite"></animate>
  </rect>
</g><g transform="rotate(205.71428571428572 50 50)">
  <rect x="47.5" y="13" rx="3.8000000000000003" ry="1.04" width="5" height="12" fill="#6b7486">
    <animate attributeName="opacity" values="1;0" keyTimes="0;1" dur="1s" begin="-0.2857142857142857s" repeatCount="indefinite"></animate>
  </rect>
</g><g transform="rotate(257.14285714285717 50 50)">
  <rect x="47.5" y="13" rx="3.8000000000000003" ry="1.04" width="5" height="12" fill="#6b7486">
    <animate attributeName="opacity" values="1;0" keyTimes="0;1" dur="1s" begin="-0.14285714285714285s" repeatCount="indefinite"></animate>
  </rect>
</g><g transform="rotate(308.57142857142856 50 50)">
  <rect x="47.5" y="13" rx="3.8000000000000003" ry="1.04" width="5" height="12" fill="#6b7486">
    <animate attributeName="opacity" values="1;0" keyTimes="0;1" dur="1s" begin="0s" repeatCount="indefinite"></animate>
  </rect>
</g></svg>