<?xml version="1.0" encoding="UTF-8" standalone="no"?>
<!-- Generator: Adobe Illustrator 23.1.1, SVG Export Plug-In . SVG Version: 6.00 Build 0) -->

<svg
   xmlns:dc="http://purl.org/dc/elements/1.1/"
   xmlns:cc="http://creativecommons.org/ns#"
   xmlns:rdf="http://www.w3.org/1999/02/22-rdf-syntax-ns#"
   xmlns:svg="http://www.w3.org/2000/svg"
   xmlns="http://www.w3.org/2000/svg"
   xmlns:sodipodi="http://sodipodi.sourceforge.net/DTD/sodipodi-0.dtd"
   xmlns:inkscape="http://www.inkscape.org/namespaces/inkscape"
   version="1.1"
   id="Layer_1"
   x="0px"
   y="0px"
   viewBox="0 0 665 291.20002"
   xml:space="preserve"
   sodipodi:docname="inss-logo.svg"
   width="665"
   height="291.20001"
   inkscape:version="0.92.4 (5da689c313, 2019-01-14)"><metadata
   id="metadata23"><rdf:RDF><cc:Work
       rdf:about=""><dc:format>image/svg+xml</dc:format><dc:type
         rdf:resource="http://purl.org/dc/dcmitype/StillImage" /><dc:title></dc:title></cc:Work></rdf:RDF></metadata><defs
   id="defs21" /><sodipodi:namedview
   pagecolor="#ffffff"
   bordercolor="#666666"
   borderopacity="1"
   objecttolerance="10"
   gridtolerance="10"
   guidetolerance="10"
   inkscape:pageopacity="0"
   inkscape:pageshadow="2"
   inkscape:window-width="2560"
   inkscape:window-height="1009"
   id="namedview19"
   showgrid="false"
   inkscape:zoom="1.02"
   inkscape:cx="144.67324"
   inkscape:cy="167.45452"
   inkscape:window-x="1358"
   inkscape:window-y="-8"
   inkscape:window-maximized="1"
   inkscape:current-layer="Layer_1" /> <style
   type="text/css"
   id="style2"> .st0{fill:#B0C700;} .st1{font-family:'Arial-BoldMT';} .st2{font-size:7.7938px;} .st3{fill:#00613F;} .st4{font-family:'MuktaMahee-Bold';} .st5{font-size:12.9924px;} </style> <g
   transform="matrix(3.2963208,0,0,3.2963208,-2397.1117,-1812.8806)"
   id="g16"> <text
   transform="translate(794.3393,589.6342)"
   class="st0 st1 st2"
   id="text4"
   style="font-size:7.79379988px;font-family:Arial-BoldMT;fill:#b0c700">INSTITUTO NACIONAL DE LA</text>
 <text
   transform="translate(794.3393,604.9877)"
   class="st3 st4 st5"
   id="text6"
   style="font-size:12.99240017px;font-family:MuktaMahee-Bold;fill:#00613f">SEGURIDAD SOCIAL</text>
 <path
   class="st3"
   d="m 780.5,550.3 15.3,14.2 c -9.1,0.5 -17.9,1.9 -25.3,7.1 -7.6,5.3 -11.9,12.8 -14.7,21.5 h -18.4 c 2.5,-11.4 7.2,-21.8 16.1,-29.6 7.4,-6.6 26.9,-13.2 27,-13.2 z"
   id="path8"
   inkscape:connector-curvature="0"
   style="fill:#00613f" /> <path
   class="st3"
   d="m 747.6,636.8 -4.9,1.3 -15.3,-14.1 c 2.9,-0.4 5.7,-0.1 8.2,-0.9 12.2,-1.5 21.4,-7.2 27.5,-17.9 1.8,-3 3.2,-6.3 4.3,-9.9 h 18.4 c -0.9,4.1 -2,8.1 -3.7,12 -6.3,15.3 -18.1,24.3 -33.7,29.3 -0.2,0 -0.5,0.1 -0.8,0.2 z"
   id="path10"
   inkscape:connector-curvature="0"
   style="fill:#00613f" /> <path
   class="st0"
   d="M 738.9,620.5 727.4,610 c 9.9,-1.4 17.6,-5.3 21.8,-14.7 h 16 c -1.5,10.8 -13.1,22 -26.3,25.2 z"
   id="path12"
   inkscape:connector-curvature="0"
   style="fill:#b0c700" /> <path
   class="st0"
   d="m 774,593.2 h -16.1 c 3.8,-13.8 13.2,-21.4 26.2,-25.3 l 11.5,10.7 c -9.7,1.2 -17.3,5.3 -21.6,14.6 z"
   id="path14"
   inkscape:connector-curvature="0"
   style="fill:#b0c700" /> </g> </svg>