<svg width="117" height="49" viewBox="0 0 117 49" fill="none" xmlns="http://www.w3.org/2000/svg">
<path d="M33.9019 36.2244C32.2171 33.2998 30.9288 31.2645 29.9972 29.8615C35.7453 27.7076 39.769 22.7082 39.769 16.1478C39.769 4.56814 30.235 0.813657 20.8993 0.813657H0.0673828V48.0411H9.81934V31.0274H14.5566C15.3098 31.0274 16.0432 31.0274 16.7765 31.0669C17.9262 31.1459 19.8884 31.6597 21.3354 33.9717C22.8418 36.4417 23.6346 38.1214 25.8744 41.8363C28.352 45.9267 30.8297 48.8118 35.2299 48.8118C40.76 48.8118 41.5132 43.4567 41.5132 43.4567C38.0445 42.3303 35.5669 39.1292 33.9019 36.2244ZM21.93 23.3801H9.81934V9.29088H21.93C26.3897 9.29088 29.6008 11.7214 29.6008 16.3651C29.6008 20.7322 26.3897 23.3801 21.93 23.3801ZM53.1085 0.813657V48.0411H62.8605V8.04598C62.8605 0.497489 53.1085 0.813657 53.1085 0.813657ZM107.18 0.813657V27.4112C107.18 34.7028 104.802 39.7812 96.9725 39.7812C89.1432 39.7812 86.9827 34.7028 86.9827 27.431V8.04598C86.9827 0.497489 77.2308 0.813657 77.2308 0.813657V28.1028C77.2308 40.1172 82.8203 48.792 96.9725 48.792C111.125 48.792 116.932 39.2082 116.932 28.1028V0.813657H107.18Z" fill="#E4002B"/>
</svg>